<svg width="2031" height="512" xmlns="http://www.w3.org/2000/svg">

 <g>
  <title>background</title>
  <rect fill="none" id="canvas_background" height="514" width="2033" y="-1" x="-1"/>
 </g>
 <g>
  <title>Layer 1</title>
  <g id="svg_1">
   <g id="svg_2">
    <g id="svg_3">
     <path id="svg_4" fill="#6f6471" d="m2034.034477,441.84l-433.192,0l0,-300.844c0,-13.688 11.097,-24.785 24.785,-24.785l383.621,0c13.688,0 24.785,11.097 24.785,24.785l0,300.844l0.001,0z"/>
    </g>
    <g id="svg_5">
     <path id="svg_6" fill="#ccf49f" d="m2004.577477,396.703l-374.18,0l0,-248.758c0,-1.435 1.163,-2.598 2.598,-2.598l368.985,0c1.435,0 2.598,1.163 2.598,2.598l0,248.758l-0.001,0z"/>
    </g>
    <g id="svg_7">
     <g id="svg_8">
      <circle id="svg_9" r="18.856001" fill="#633c3e" cy="190.282" cx="1753.331477"/>
     </g>
     <g id="svg_10">
      <g id="svg_11">
       <path id="svg_12" fill="#95d5a4" d="m1723.993477,365.711l40.566,0c12.506,0 21.971,-11.308 19.769,-23.619l-2.979,-16.655c-2.259,-12.629 -11.075,-23.098 -23.136,-27.472l-34.221,-12.411l-34.493,12.51c-11.914,4.321 -20.674,14.595 -23.056,27.042l-3.206,16.746c-2.37,12.381 7.119,23.858 19.725,23.858l41.031,0"/>
      </g>
      <g id="svg_13">
       <path id="svg_14" fill="#ecbd83" d="m1742.864477,292.445l-19.296,16.844l-19.284,-16.844l0,-25.858l38.58,0l0,25.858z"/>
      </g>
      <g id="svg_15">
       <path id="svg_16" fill="#f7d4ad" d="m1754.218477,220.972l0,21.92c0,17.18 -14.07,31.66 -31.25,31.33c-16.65,-0.32 -30.05,-13.92 -30.05,-30.64l0,-22.61c0,-3.57 0.61,-7 1.74,-10.18c4.19,-11.92 15.55,-20.46 28.91,-20.46c8.46,0 11.396,6.971 16.946,12.511c5.55,5.55 13.704,9.669 13.704,18.129z"/>
      </g>
     </g>
     <g id="svg_17">
      <path id="svg_18" fill="#6e4848" d="m1754.218477,220.972l0,3.79l-0.45,0.19c-2.03,1.59 -4.32,2.92 -6.83,3.93c-11.49,4.6 -24.24,1 -31.76,-8.03c0,0 -7.03,-8.4 -19.19,-9.92c-0.46,-0.06 -0.9,-0.11 -1.33,-0.14c4.19,-11.92 15.55,-20.46 28.91,-20.46c8.46,0 16.12,3.43 21.67,8.97c5.55,5.55 8.98,13.21 8.98,21.67z"/>
     </g>
    </g>
    <g id="svg_19">
     <path id="svg_20" fill="#c7c5c9" d="m2063.136477,424.872l-186.173,0c-4.686,0 -8.484,3.799 -8.484,8.484c0,4.686 -3.799,8.484 -8.484,8.484l-85.113,0c-4.686,0 -8.484,-3.799 -8.484,-8.484c0,-4.686 -3.799,-8.484 -8.484,-8.484l-186.174,0c-1.548,0 -2.802,1.255 -2.802,2.802l0,5.054c0,17.823 14.448,32.271 32.271,32.271l432.458,0c17.823,0 32.271,-14.448 32.271,-32.271l0,-5.054c0,-1.548 -1.255,-2.802 -2.802,-2.802z"/>
    </g>
    <g id="svg_21">
     <path id="svg_22" fill="#d2d2ff" d="m2003.814477,396.703l-186.376,0l0,-251.356l186.376,0c0.421,0 0.762,0.341 0.762,0.762l0,249.831c0.001,0.421 -0.341,0.763 -0.762,0.763z"/>
    </g>
    <g id="svg_23">
     <g id="svg_24">
      <g id="svg_25">
       <path id="svg_26" fill="#a09eef" d="m1911.240477,365.711l40.566,0c12.506,0 21.971,-11.308 19.769,-23.619l-2.979,-16.655c-2.259,-12.629 -11.075,-23.098 -23.136,-27.472l-34.221,-12.411l-34.493,12.51c-11.914,4.321 -20.674,14.595 -23.056,27.042l-3.206,16.746c-2.37,12.381 7.119,23.858 19.725,23.858l41.031,0"/>
      </g>
      <g id="svg_27">
       <path id="svg_28" fill="#ecbd83" d="m1930.111477,292.445l-0.007,0.006c-11.049,9.645 -27.526,9.643 -38.572,-0.006l0,-25.858l38.58,0l0,25.858l-0.001,0z"/>
      </g>
      <g id="svg_29">
       <path id="svg_30" fill="#f7d4ad" d="m1941.458477,220.972l0,21.92c0,17.18 -14.06,31.66 -31.24,31.33c-16.65,-0.32 -30.05,-13.92 -30.05,-30.64l0,-22.61c0,-16.92 13.72,-30.64 30.65,-30.64c8.46,0 16.12,3.43 21.66,8.97c5.01,5.01 8.29,11.74 8.88,19.23c0.07,0.81 0.1,1.62 0.1,2.44z"/>
      </g>
     </g>
     <g id="svg_31">
      <path id="svg_32" fill="#6e4848" d="m1941.358477,218.532c-1.17,1.49 -1.93,2.44 -1.93,2.44c-2.17,1.25 -4.53,2.41 -7.05,3.42c-6.886,2.757 -13.679,3.923 -19.186,3.594c-4.123,-0.246 -8.041,-1.965 -10.968,-4.879c-1.548,-1.541 -3.887,-3.497 -6.637,-4.575c-4.11,-1.61 -10.14,5.18 -15.42,6.23l0,-3.163c0,-16.749 13.179,-30.871 29.924,-31.259c8.747,-0.202 16.688,3.264 22.386,8.962c5.011,5.01 8.291,11.74 8.881,19.23z"/>
     </g>
    </g>
    <g id="svg_33">
     <g id="svg_34">
      <path id="svg_35" fill="#ecbd83" d="m1899.391477,47.001l-117.256,0c-8.574,0 -15.524,6.95 -15.524,15.524l0,67.332c0,8.574 6.95,15.524 15.524,15.524l0.759,0c3.244,0 5.875,2.63 5.875,5.875l0,19.653c0,3.081 3.582,4.775 5.964,2.821l32.932,-27.017c1.051,-0.862 2.367,-1.333 3.726,-1.333l68,0c8.574,0 15.524,-6.95 15.524,-15.524l0,-67.331c-0.001,-8.573 -6.951,-15.524 -15.524,-15.524z"/>
     </g>
    </g>
    <g id="svg_36">
     <g id="svg_37">
      <circle id="svg_38" r="43.259998" fill="#ff6b61" cy="323.632" cx="1817.487477"/>
     </g>
    </g>
   </g>
   <g id="svg_39">
    <path id="svg_40" d="m2063.136477,417.372l-21.598,0l0,-276.38c0,-17.799 -14.485,-32.28 -32.29,-32.28l-86.833,0l0,-46.187c0,-12.695 -10.329,-23.024 -23.024,-23.024l-117.256,0c-12.695,0 -23.024,10.329 -23.024,23.024l0,67.332c0,2.81 0.51,5.503 1.436,7.995l-127.549,0c-5.569,0 -10.1,4.526 -10.1,10.09l0,248.76c0,4.142 3.358,7.5 7.5,7.5l374.18,0c4.142,0 7.5,-3.358 7.5,-7.5l0,-248.76c0,-1.196 -0.207,-2.362 -0.594,-3.413c-1.439,-3.994 -5.259,-6.677 -9.506,-6.677l-60.518,0c-4.142,0 -7.5,3.358 -7.5,7.5s3.358,7.5 7.5,7.5l55.618,0l0,236.35l-172.14,0l0,-15.362c9.044,-1.336 17.312,-5.071 24.15,-10.528c5.137,6.109 12.814,9.9 21.12,9.9l81.6,0c8.184,0 15.892,-3.601 21.148,-9.879c5.256,-6.279 7.445,-14.502 6.005,-22.562l-2.98,-16.661c-2.722,-15.202 -13.437,-27.922 -27.964,-33.198l-10.408,-3.777l0,-16.747c7.217,-7.3 11.352,-17.282 11.352,-27.496l0,-21.915c0,-21.034 -17.112,-38.146 -38.145,-38.146c-21.034,0 -38.146,17.112 -38.146,38.146l0,22.601c0,10.511 4.36,20.101 11.358,27.04l0,16.827l-9.836,3.567c-4.698,1.703 -8.989,4.159 -12.763,7.261c-7.602,-13.121 -20.898,-22.544 -36.491,-24.848l0,-114.773l7.034,-5.771l67.418,0c12.695,0 23.024,-10.329 23.024,-23.024l0,-6.146l86.833,0c9.534,0 17.29,7.752 17.29,17.28l0,276.379l-149.574,0c-8.814,0 -15.984,7.17 -15.984,15.984c0,0.543 -0.441,0.984 -0.984,0.984l-85.113,0c-0.542,0 -0.984,-0.441 -0.984,-0.984c0,-8.814 -7.17,-15.984 -15.984,-15.984l-149.576,0l0,-276.378c0,-9.528 7.756,-17.28 17.29,-17.28l108.85,0c4.142,0 7.5,-3.358 7.5,-7.5s-3.358,-7.5 -7.5,-7.5l-108.85,0c-17.805,0 -32.29,14.481 -32.29,32.28l0,276.379l-21.597,0c-5.681,0.001 -10.303,4.622 -10.303,10.303l0,5.054c0,21.93 17.841,39.771 39.771,39.771l432.458,0c21.93,0 39.771,-17.841 39.771,-39.771l0,-5.053c0,-5.682 -4.622,-10.303 -10.302,-10.303zm-175.467,-196.395c0,-12.763 10.383,-23.146 23.146,-23.146c10.95,0 20.142,7.647 22.533,17.879c-1.216,0.612 -2.462,1.196 -3.757,1.714c-10.364,4.149 -18.552,3.543 -21.056,1.788c-3.391,-2.378 -8.068,-1.558 -10.447,1.833c-2.378,3.391 -1.558,8.068 1.833,10.447c3.816,2.676 9.136,4.013 15.202,4.013c5.818,0 12.321,-1.246 18.836,-3.703l0,11.088c0,6.409 -2.649,12.683 -7.269,17.214c-4.468,4.382 -10.263,6.729 -16.333,6.614c-12.511,-0.241 -22.689,-10.623 -22.689,-23.143l0,-22.598l0.001,0zm22.4,60.74c0.244,0.005 0.486,0.007 0.73,0.007c4.062,0 8.035,-0.665 11.809,-1.929l0,8.93c-7.138,4.559 -16.438,4.56 -23.58,-0.015l0,-8.872c3.491,1.15 7.199,1.805 11.041,1.879zm-30.764,23.396l11.202,-4.063c6.124,4.04 13.22,6.066 20.319,6.066c7.217,0 14.43,-2.094 20.617,-6.261l11.455,4.156c9.516,3.456 16.535,11.788 18.317,21.742l2.979,16.658c0.657,3.676 -0.342,7.428 -2.741,10.293c-2.398,2.865 -5.914,4.508 -9.646,4.508l-81.6,0c-4.449,0 -8.502,-2.387 -10.746,-6.073c5.54,-8.132 8.784,-17.946 8.784,-28.506c0,-3.445 -0.349,-6.811 -1.006,-10.065c3.204,-3.827 7.314,-6.733 12.066,-8.455zm-26.058,18.519c0,19.718 -16.042,35.76 -35.76,35.76s-35.76,-16.042 -35.76,-35.76s16.042,-35.76 35.76,-35.76s35.76,16.042 35.76,35.76zm-110.975,-135.881c1.154,-5.048 5.668,-8.829 11.056,-8.829c6.264,0 11.36,5.096 11.36,11.36c0,5.267 -3.608,9.695 -8.479,10.975c-3.402,-5.611 -8.215,-10.272 -13.937,-13.506zm4.434,32.931c-0.821,0.469 -1.676,0.884 -2.561,1.239c-8.216,3.29 -17.538,0.933 -23.201,-5.864c-2.651,-3.183 -7.381,-3.613 -10.563,-0.962c-3.183,2.651 -3.613,7.38 -0.962,10.563c6.876,8.255 16.859,12.74 27.121,12.74c3.395,0 6.82,-0.496 10.174,-1.504l0,5.999c0,6.409 -2.649,12.683 -7.269,17.214c-4.468,4.382 -10.256,6.729 -16.333,6.614c-12.511,-0.241 -22.689,-10.623 -22.689,-23.143l0,-22.601c0,-12.763 10.383,-23.146 23.146,-23.146c12.663,0 22.978,10.224 23.137,22.851zm-23.883,61.035c0.244,0.005 0.486,0.007 0.73,0.007c4.065,0 8.039,-0.666 11.815,-1.932l0,9.241l-11.797,10.299l-11.783,-10.299l0,-9.193c3.49,1.148 7.195,1.803 11.035,1.877zm-19.93,19.465l15.739,13.756c1.414,1.236 3.175,1.854 4.936,1.854c1.76,0 3.52,-0.617 4.933,-1.85l16.008,-13.976l11.151,4.046c4.698,1.705 8.888,4.682 12.084,8.496c-0.665,3.273 -1.016,6.658 -1.016,10.124c0,10.496 3.202,20.259 8.681,28.361c-2.217,3.773 -6.316,6.218 -10.85,6.218l-81.6,0c-3.761,0 -7.293,-1.664 -9.692,-4.564c-2.399,-2.902 -3.37,-6.688 -2.663,-10.384l3.21,-16.752c1.875,-9.799 8.865,-17.998 18.241,-21.399l10.838,-3.93zm107.045,-27.746c-15.538,2.327 -28.784,11.726 -36.374,24.801c-3.807,-3.135 -8.138,-5.638 -12.788,-7.326l-10.408,-3.777l0,-16.754c7.212,-7.3 11.345,-17.278 11.345,-27.489l0,-21.915c0,-1.892 -0.144,-3.751 -0.411,-5.571c10.648,-3.388 18.385,-13.368 18.385,-25.124c0,-14.535 -11.825,-26.36 -26.36,-26.36c-12.038,0 -22.21,8.121 -25.346,19.173c-1.449,-0.168 -2.92,-0.263 -4.414,-0.263c-21.034,0 -38.146,17.112 -38.146,38.146l0,22.601c0,10.515 4.363,20.108 11.366,27.047l0,16.816l-9.847,3.571c-14.321,5.194 -24.996,17.717 -27.859,32.679l-3.21,16.751c-1.551,8.105 0.575,16.402 5.834,22.763c5.257,6.359 13.004,10.007 21.252,10.007l81.6,0c8.384,0 16.089,-3.823 21.216,-9.987c6.835,5.486 15.109,9.247 24.164,10.603l0,15.374l-172.039,0l0,-236.35s142.49,-0.02 143.371,0.013l0,18.044c0,4.354 2.445,8.216 6.381,10.079c1.541,0.729 3.174,1.087 4.792,1.087c2.517,0 4.999,-0.865 7.047,-2.546l10.449,-8.572l0,102.479zm97.477,-143.579c0,4.424 -3.6,8.024 -8.024,8.024l-68,0c-3.085,0 -6.098,1.078 -8.482,3.034l-26.64,21.854l0,-11.514c0,-7.375 -6,-13.375 -13.375,-13.375l-0.759,0c-4.424,0 -8.024,-3.6 -8.024,-8.024l0,-67.331c0,-4.424 3.6,-8.024 8.024,-8.024l117.255,0c4.424,0 8.024,3.6 8.024,8.024l0,67.332l0.001,0zm151.023,302.871c0,13.659 -11.112,24.771 -24.771,24.771l-432.458,0c-13.659,0 -24.771,-11.112 -24.771,-24.771l0,-0.356l24.39,0l0.01,0s0.006,0 0.01,0l157.065,0c0.543,0 0.984,0.441 0.984,0.984c0,8.548 6.75,15.53 15.196,15.944c0.258,0.027 0.52,0.041 0.785,0.041l85.12,0c0.265,0 0.527,-0.015 0.785,-0.042c8.447,-0.415 15.196,-7.396 15.196,-15.944c0,-0.543 0.441,-0.984 0.984,-0.984l157.065,0l0.01,0s0.006,0 0.01,0l24.39,0l0,0.357z"/>
    <path id="svg_41" d="m1879.204477,70.823l-82.688,0c-4.142,0 -7.5,3.358 -7.5,7.5s3.358,7.5 7.5,7.5l82.688,0c4.142,0 7.5,-3.358 7.5,-7.5s-3.358,-7.5 -7.5,-7.5z"/>
    <path id="svg_42" d="m1850.526477,103.283l-54.011,0c-4.142,0 -7.5,3.358 -7.5,7.5s3.358,7.5 7.5,7.5l54.011,0c4.142,0 7.5,-3.358 7.5,-7.5s-3.358,-7.5 -7.5,-7.5z"/>
    <path id="svg_43" d="m1820.736477,323.627l-3.474,4.083c-1.625,1.91 -4.521,2.167 -6.452,0.575l-0.463,-0.382c-3.195,-2.636 -7.922,-2.183 -10.558,1.012s-2.183,7.922 1.012,10.558l0.467,0.386c3.625,2.987 8.043,4.444 12.444,4.444c5.574,0 11.118,-2.34 14.974,-6.872l3.474,-4.083c6.799,-7.99 6.126,-19.866 -1.533,-27.037c-3.024,-2.831 -7.77,-2.673 -10.601,0.349c-2.831,3.024 -2.674,7.77 0.349,10.601c1.803,1.689 1.962,4.485 0.361,6.366z"/>
   </g>
  </g>
 </g>
</svg>