<svg width="24" height="24" viewBox="0 0 24 24" fill="none" xmlns="http://www.w3.org/2000/svg">
<path fill-rule="evenodd" clip-rule="evenodd" d="M21.45 6.07143C22.15 6.69643 22.325 8.21429 22.325 8.21429C22.325 8.21429 22.5 9.91071 22.5 11.6071V13.2143C22.5 15 22.325 16.6964 22.325 16.6964C22.325 16.6964 22.0625 18.2143 21.45 18.8393C20.7875 19.5153 20.0631 19.6226 19.5894 19.6928C19.4999 19.706 19.4195 19.718 19.35 19.7321C16.375 20 12 20 12 20C12 20 6.4875 20 4.825 19.8214C4.74107 19.8043 4.63461 19.7937 4.51178 19.7816C3.99431 19.7303 3.18643 19.6502 2.55 18.9286C1.85 18.3036 1.675 16.7857 1.675 16.7857C1.675 16.7857 1.5 15 1.5 13.3036V11.6964C1.5 9.91071 1.675 8.21429 1.675 8.21429C1.675 8.21429 1.9375 6.69643 2.55 6.07143C3.21247 5.39544 3.93686 5.28811 4.41064 5.21792C4.50005 5.20467 4.58054 5.19275 4.65 5.17857C7.625 5 12 5 12 5C12 5 16.375 5 19.35 5.17857C19.7875 5.17857 20.6625 5.17857 21.45 6.07143ZM9.5 9.5V15.5L15.5 12.5448L9.5 9.5Z" fill="#162942"/>
</svg>
