<svg width="24" height="24" viewBox="0 0 24 24" fill="none" xmlns="http://www.w3.org/2000/svg">
<path d="M21.6004 6.08023C20.8804 6.40023 20.1604 6.64023 19.3604 6.72023C20.1604 6.24023 20.8004 5.44023 21.1204 4.56023C20.3204 5.04023 19.5204 5.36023 18.6404 5.52023C17.9204 4.72023 16.8804 4.24023 15.7604 4.24023C13.6004 4.24023 11.8404 6.00023 11.8404 8.16023C11.8404 8.48023 11.8404 8.80023 11.9204 9.04023C8.56039 8.88023 5.68039 7.28023 3.76039 4.88023C3.36039 5.52023 3.20039 6.16023 3.20039 6.88023C3.20039 8.24023 3.92039 9.44023 4.96039 10.1602C4.32039 10.1602 3.68039 10.0002 3.20039 9.68023C3.20039 9.68023 3.20039 9.68023 3.20039 9.76023C3.20039 11.6802 4.56039 13.2802 6.32039 13.6002C6.00039 13.6802 5.68039 13.7602 5.28039 13.7602C5.04039 13.7602 4.80039 13.7602 4.56039 13.6802C5.04039 15.2802 6.48039 16.4002 8.24039 16.4002C6.88039 17.4402 5.20039 18.0802 3.36039 18.0802C3.04039 18.0802 2.72039 18.0802 2.40039 18.0002C4.16039 19.1202 6.24039 19.7602 8.40039 19.7602C15.6804 19.7602 19.6004 13.7602 19.6004 8.56023C19.6004 8.40023 19.6004 8.24023 19.6004 8.08023C20.4004 7.52023 21.0404 6.80023 21.6004 6.08023Z" fill="#162942"/>
</svg>
