<svg id="Capa_1" enable-background="new 0 0 512 512" height="512" viewBox="0 0 512 512" width="512" xmlns="http://www.w3.org/2000/svg"><g><g><g><path d="m472.596 441.84h-433.192v-300.844c0-13.688 11.097-24.785 24.785-24.785h383.621c13.688 0 24.785 11.097 24.785 24.785v300.844z" fill="#6f6471"/></g><g><path d="m443.139 396.703h-374.18v-248.758c0-1.435 1.163-2.598 2.598-2.598h368.985c1.435 0 2.598 1.163 2.598 2.598v248.758z" fill="#ccf49f"/></g><g><g><circle cx="191.893" cy="190.282" fill="#633c3e" r="18.856"/></g><g><g><path d="m162.555 365.711h40.566c12.506 0 21.971-11.308 19.769-23.619l-2.979-16.655c-2.259-12.629-11.075-23.098-23.136-27.472l-34.221-12.411-34.493 12.51c-11.914 4.321-20.674 14.595-23.056 27.042l-3.206 16.746c-2.37 12.381 7.119 23.858 19.725 23.858h41.031" fill="#95d5a4"/></g><g><path d="m181.426 292.445-19.296 16.844-19.284-16.844v-25.858h38.58z" fill="#ecbd83"/></g><g><path d="m192.78 220.972v21.92c0 17.18-14.07 31.66-31.25 31.33-16.65-.32-30.05-13.92-30.05-30.64v-22.61c0-3.57.61-7 1.74-10.18 4.19-11.92 15.55-20.46 28.91-20.46 8.46 0 11.396 6.971 16.946 12.511 5.55 5.55 13.704 9.669 13.704 18.129z" fill="#f7d4ad"/></g></g><g><path d="m192.78 220.972v3.79l-.45.19c-2.03 1.59-4.32 2.92-6.83 3.93-11.49 4.6-24.24 1-31.76-8.03 0 0-7.03-8.4-19.19-9.92-.46-.06-.9-.11-1.33-.14 4.19-11.92 15.55-20.46 28.91-20.46 8.46 0 16.12 3.43 21.67 8.97 5.55 5.55 8.98 13.21 8.98 21.67z" fill="#6e4848"/></g></g><g><path d="m501.698 424.872h-186.173c-4.686 0-8.484 3.799-8.484 8.484 0 4.686-3.799 8.484-8.484 8.484h-85.113c-4.686 0-8.484-3.799-8.484-8.484 0-4.686-3.799-8.484-8.484-8.484h-186.174c-1.548 0-2.802 1.255-2.802 2.802v5.054c0 17.823 14.448 32.271 32.271 32.271h432.458c17.823 0 32.271-14.448 32.271-32.271v-5.054c0-1.548-1.255-2.802-2.802-2.802z" fill="#c7c5c9"/></g><g><path d="m442.376 396.703h-186.376v-251.356h186.376c.421 0 .762.341.762.762v249.831c.001.421-.341.763-.762.763z" fill="#d2d2ff"/></g><g><g><g><path d="m349.802 365.711h40.566c12.506 0 21.971-11.308 19.769-23.619l-2.979-16.655c-2.259-12.629-11.075-23.098-23.136-27.472l-34.221-12.411-34.493 12.51c-11.914 4.321-20.674 14.595-23.056 27.042l-3.206 16.746c-2.37 12.381 7.119 23.858 19.725 23.858h41.031" fill="#a09eef"/></g><g><path d="m368.673 292.445-.007.006c-11.049 9.645-27.526 9.643-38.572-.006v-25.858h38.58v25.858z" fill="#ecbd83"/></g><g><path d="m380.02 220.972v21.92c0 17.18-14.06 31.66-31.24 31.33-16.65-.32-30.05-13.92-30.05-30.64v-22.61c0-16.92 13.72-30.64 30.65-30.64 8.46 0 16.12 3.43 21.66 8.97 5.01 5.01 8.29 11.74 8.88 19.23.07.81.1 1.62.1 2.44z" fill="#f7d4ad"/></g></g><g><path d="m379.92 218.532c-1.17 1.49-1.93 2.44-1.93 2.44-2.17 1.25-4.53 2.41-7.05 3.42-6.886 2.757-13.679 3.923-19.186 3.594-4.123-.246-8.041-1.965-10.968-4.879-1.548-1.541-3.887-3.497-6.637-4.575-4.11-1.61-10.14 5.18-15.42 6.23v-3.163c0-16.749 13.179-30.871 29.924-31.259 8.747-.202 16.688 3.264 22.386 8.962 5.011 5.01 8.291 11.74 8.881 19.23z" fill="#6e4848"/></g></g><g><g><path d="m337.953 47.001h-117.256c-8.574 0-15.524 6.95-15.524 15.524v67.332c0 8.574 6.95 15.524 15.524 15.524h.759c3.244 0 5.875 2.63 5.875 5.875v19.653c0 3.081 3.582 4.775 5.964 2.821l32.932-27.017c1.051-.862 2.367-1.333 3.726-1.333h68c8.574 0 15.524-6.95 15.524-15.524v-67.331c-.001-8.573-6.951-15.524-15.524-15.524z" fill="#ecbd83"/></g></g><g><g><circle cx="256.049" cy="323.632" fill="#ff6b61" r="43.26"/></g></g></g><g><path d="m501.698 417.372h-21.598v-276.38c0-17.799-14.485-32.28-32.29-32.28h-86.833v-46.187c0-12.695-10.329-23.024-23.024-23.024h-117.256c-12.695 0-23.024 10.329-23.024 23.024v67.332c0 2.81.51 5.503 1.436 7.995h-127.549c-5.569 0-10.1 4.526-10.1 10.09v248.76c0 4.142 3.358 7.5 7.5 7.5h374.18c4.142 0 7.5-3.358 7.5-7.5v-248.76c0-1.196-.207-2.362-.594-3.413-1.439-3.994-5.259-6.677-9.506-6.677h-60.518c-4.142 0-7.5 3.358-7.5 7.5s3.358 7.5 7.5 7.5h55.618v236.35h-172.14v-15.362c9.044-1.336 17.312-5.071 24.15-10.528 5.137 6.109 12.814 9.9 21.12 9.9h81.6c8.184 0 15.892-3.601 21.148-9.879 5.256-6.279 7.445-14.502 6.005-22.562l-2.98-16.661c-2.722-15.202-13.437-27.922-27.964-33.198l-10.408-3.777v-16.747c7.217-7.3 11.352-17.282 11.352-27.496v-21.915c0-21.034-17.112-38.146-38.145-38.146-21.034 0-38.146 17.112-38.146 38.146v22.601c0 10.511 4.36 20.101 11.358 27.04v16.827l-9.836 3.567c-4.698 1.703-8.989 4.159-12.763 7.261-7.602-13.121-20.898-22.544-36.491-24.848v-114.773l7.034-5.771h67.418c12.695 0 23.024-10.329 23.024-23.024v-6.146h86.833c9.534 0 17.29 7.752 17.29 17.28v276.379h-149.574c-8.814 0-15.984 7.17-15.984 15.984 0 .543-.441.984-.984.984h-85.113c-.542 0-.984-.441-.984-.984 0-8.814-7.17-15.984-15.984-15.984h-149.576v-276.378c0-9.528 7.756-17.28 17.29-17.28h108.85c4.142 0 7.5-3.358 7.5-7.5s-3.358-7.5-7.5-7.5h-108.85c-17.805 0-32.29 14.481-32.29 32.28v276.379h-21.597c-5.681.001-10.303 4.622-10.303 10.303v5.054c0 21.93 17.841 39.771 39.771 39.771h432.458c21.93 0 39.771-17.841 39.771-39.771v-5.053c0-5.682-4.622-10.303-10.302-10.303zm-175.467-196.395c0-12.763 10.383-23.146 23.146-23.146 10.95 0 20.142 7.647 22.533 17.879-1.216.612-2.462 1.196-3.757 1.714-10.364 4.149-18.552 3.543-21.056 1.788-3.391-2.378-8.068-1.558-10.447 1.833-2.378 3.391-1.558 8.068 1.833 10.447 3.816 2.676 9.136 4.013 15.202 4.013 5.818 0 12.321-1.246 18.836-3.703v11.088c0 6.409-2.649 12.683-7.269 17.214-4.468 4.382-10.263 6.729-16.333 6.614-12.511-.241-22.689-10.623-22.689-23.143v-22.598zm22.4 60.74c.244.005.486.007.73.007 4.062 0 8.035-.665 11.809-1.929v8.93c-7.138 4.559-16.438 4.56-23.58-.015v-8.872c3.491 1.15 7.199 1.805 11.041 1.879zm-30.764 23.396 11.202-4.063c6.124 4.04 13.22 6.066 20.319 6.066 7.217 0 14.43-2.094 20.617-6.261l11.455 4.156c9.516 3.456 16.535 11.788 18.317 21.742l2.979 16.658c.657 3.676-.342 7.428-2.741 10.293-2.398 2.865-5.914 4.508-9.646 4.508h-81.6c-4.449 0-8.502-2.387-10.746-6.073 5.54-8.132 8.784-17.946 8.784-28.506 0-3.445-.349-6.811-1.006-10.065 3.204-3.827 7.314-6.733 12.066-8.455zm-26.058 18.519c0 19.718-16.042 35.76-35.76 35.76s-35.76-16.042-35.76-35.76 16.042-35.76 35.76-35.76 35.76 16.042 35.76 35.76zm-110.975-135.881c1.154-5.048 5.668-8.829 11.056-8.829 6.264 0 11.36 5.096 11.36 11.36 0 5.267-3.608 9.695-8.479 10.975-3.402-5.611-8.215-10.272-13.937-13.506zm4.434 32.931c-.821.469-1.676.884-2.561 1.239-8.216 3.29-17.538.933-23.201-5.864-2.651-3.183-7.381-3.613-10.563-.962-3.183 2.651-3.613 7.38-.962 10.563 6.876 8.255 16.859 12.74 27.121 12.74 3.395 0 6.82-.496 10.174-1.504v5.999c0 6.409-2.649 12.683-7.269 17.214-4.468 4.382-10.256 6.729-16.333 6.614-12.511-.241-22.689-10.623-22.689-23.143v-22.601c0-12.763 10.383-23.146 23.146-23.146 12.663 0 22.978 10.224 23.137 22.851zm-23.883 61.035c.244.005.486.007.73.007 4.065 0 8.039-.666 11.815-1.932v9.241l-11.797 10.299-11.783-10.299v-9.193c3.49 1.148 7.195 1.803 11.035 1.877zm-19.93 19.465 15.739 13.756c1.414 1.236 3.175 1.854 4.936 1.854 1.76 0 3.52-.617 4.933-1.85l16.008-13.976 11.151 4.046c4.698 1.705 8.888 4.682 12.084 8.496-.665 3.273-1.016 6.658-1.016 10.124 0 10.496 3.202 20.259 8.681 28.361-2.217 3.773-6.316 6.218-10.85 6.218h-81.6c-3.761 0-7.293-1.664-9.692-4.564-2.399-2.902-3.37-6.688-2.663-10.384l3.21-16.752c1.875-9.799 8.865-17.998 18.241-21.399zm107.045-27.746c-15.538 2.327-28.784 11.726-36.374 24.801-3.807-3.135-8.138-5.638-12.788-7.326l-10.408-3.777v-16.754c7.212-7.3 11.345-17.278 11.345-27.489v-21.915c0-1.892-.144-3.751-.411-5.571 10.648-3.388 18.385-13.368 18.385-25.124 0-14.535-11.825-26.36-26.36-26.36-12.038 0-22.21 8.121-25.346 19.173-1.449-.168-2.92-.263-4.414-.263-21.034 0-38.146 17.112-38.146 38.146v22.601c0 10.515 4.363 20.108 11.366 27.047v16.816l-9.847 3.571c-14.321 5.194-24.996 17.717-27.859 32.679l-3.21 16.751c-1.551 8.105.575 16.402 5.834 22.763 5.257 6.359 13.004 10.007 21.252 10.007h81.6c8.384 0 16.089-3.823 21.216-9.987 6.835 5.486 15.109 9.247 24.164 10.603v15.374h-172.039v-236.35s142.49-.02 143.371.013v18.044c0 4.354 2.445 8.216 6.381 10.079 1.541.729 3.174 1.087 4.792 1.087 2.517 0 4.999-.865 7.047-2.546l10.449-8.572zm97.477-143.579c0 4.424-3.6 8.024-8.024 8.024h-68c-3.085 0-6.098 1.078-8.482 3.034l-26.64 21.854v-11.514c0-7.375-6-13.375-13.375-13.375h-.759c-4.424 0-8.024-3.6-8.024-8.024v-67.331c0-4.424 3.6-8.024 8.024-8.024h117.255c4.424 0 8.024 3.6 8.024 8.024v67.332zm151.023 302.871c0 13.659-11.112 24.771-24.771 24.771h-432.458c-13.659 0-24.771-11.112-24.771-24.771v-.356h24.39.01s.006 0 .01 0h157.065c.543 0 .984.441.984.984 0 8.548 6.75 15.53 15.196 15.944.258.027.52.041.785.041h85.12c.265 0 .527-.015.785-.042 8.447-.415 15.196-7.396 15.196-15.944 0-.543.441-.984.984-.984h157.065.01s.006 0 .01 0h24.39z"/><path d="m317.766 70.823h-82.688c-4.142 0-7.5 3.358-7.5 7.5s3.358 7.5 7.5 7.5h82.688c4.142 0 7.5-3.358 7.5-7.5s-3.358-7.5-7.5-7.5z"/><path d="m289.088 103.283h-54.011c-4.142 0-7.5 3.358-7.5 7.5s3.358 7.5 7.5 7.5h54.011c4.142 0 7.5-3.358 7.5-7.5s-3.358-7.5-7.5-7.5z"/><path d="m259.298 323.627-3.474 4.083c-1.625 1.91-4.521 2.167-6.452.575l-.463-.382c-3.195-2.636-7.922-2.183-10.558 1.012s-2.183 7.922 1.012 10.558l.467.386c3.625 2.987 8.043 4.444 12.444 4.444 5.574 0 11.118-2.34 14.974-6.872l3.474-4.083c6.799-7.99 6.126-19.866-1.533-27.037-3.024-2.831-7.77-2.673-10.601.349-2.831 3.024-2.674 7.77.349 10.601 1.803 1.689 1.962 4.485.361 6.366z"/></g></g></svg>