<svg id="svg" version="1.1" xmlns="http://www.w3.org/2000/svg" xmlns:xlink="http://www.w3.org/1999/xlink" width="400" height="400" viewBox="0, 0, 400,400"><g id="svgg"><path id="path0" d="M397.700 181.862 C 397.205 182.556,396.800 183.298,396.800 183.510 C 396.800 184.118,391.837 192.147,389.225 195.765 C 360.161 236.025,307.376 236.895,276.092 197.629 L 275.318 196.659 274.389 197.525 C 273.877 198.001,273.145 198.490,272.762 198.612 C 272.311 198.755,271.971 199.427,271.799 200.517 C 271.532 202.209,271.393 202.822,270.197 207.600 C 269.351 210.983,266.570 219.200,265.399 221.779 C 264.894 222.890,264.202 224.475,263.861 225.300 L 263.241 226.800 265.400 226.800 C 293.909 226.800,321.368 246.110,337.795 277.709 C 342.195 286.172,347.161 298.293,346.600 299.200 C 346.438 299.462,334.012 299.600,310.576 299.600 L 274.800 299.600 274.783 316.900 C 274.774 326.415,274.729 338.919,274.683 344.686 L 274.600 355.172 300.400 355.286 L 326.200 355.400 327.400 354.334 C 329.732 352.263,331.652 350.588,332.826 349.600 C 334.941 347.818,348.800 334.040,348.803 333.715 C 348.809 333.256,351.584 330.400,352.025 330.400 C 352.231 330.400,352.400 330.134,352.400 329.809 C 352.400 329.484,352.850 328.924,353.400 328.563 C 353.950 328.203,354.400 327.672,354.400 327.383 C 354.400 327.094,354.850 326.504,355.400 326.071 C 355.950 325.639,356.400 325.105,356.400 324.885 C 356.400 324.665,356.940 323.907,357.600 323.200 C 358.260 322.493,358.800 321.763,358.800 321.576 C 358.800 321.389,359.205 320.795,359.700 320.256 C 360.892 318.958,361.317 318.409,362.227 316.990 C 362.646 316.335,363.218 315.561,363.497 315.269 C 363.777 314.977,364.213 314.347,364.466 313.869 C 364.720 313.391,365.244 312.775,365.632 312.500 C 366.019 312.224,366.455 311.459,366.600 310.800 C 366.745 310.140,367.001 309.600,367.169 309.600 C 367.337 309.600,367.817 308.925,368.237 308.100 C 368.657 307.275,369.315 306.365,369.700 306.077 C 370.085 305.790,370.400 305.337,370.400 305.070 C 370.400 304.804,370.889 303.869,371.487 302.993 C 372.085 302.117,372.625 301.077,372.687 300.683 C 372.749 300.289,373.134 299.608,373.542 299.170 C 373.950 298.732,374.625 297.661,375.042 296.791 C 375.459 295.921,375.927 295.207,376.082 295.205 C 376.237 295.202,376.482 294.570,376.626 293.800 C 376.771 293.030,377.016 292.400,377.170 292.400 C 377.486 292.400,378.800 289.795,378.800 289.170 C 378.800 288.948,379.151 288.390,379.580 287.929 C 380.009 287.469,380.483 286.531,380.634 285.846 C 380.784 285.161,381.333 283.973,381.854 283.207 C 382.374 282.441,382.801 281.541,382.801 281.207 C 382.802 280.873,383.141 280.045,383.555 279.367 C 383.969 278.688,384.431 277.567,384.583 276.876 C 384.735 276.184,385.295 274.759,385.828 273.709 C 386.361 272.659,386.797 271.395,386.798 270.900 C 386.799 270.405,386.938 270.000,387.106 270.000 C 387.524 270.000,388.800 266.982,388.800 265.992 C 388.800 265.550,388.965 264.877,389.166 264.495 C 390.234 262.471,390.800 260.730,390.800 259.473 C 390.800 258.699,390.935 258.007,391.100 257.933 C 391.639 257.694,392.804 253.837,392.802 252.300 C 392.801 251.475,392.980 250.800,393.200 250.800 C 393.420 250.800,393.600 250.350,393.600 249.800 C 393.600 249.250,393.762 248.800,393.959 248.800 C 394.157 248.800,394.437 247.495,394.582 245.900 C 394.823 243.233,395.100 242.173,396.037 240.321 C 396.226 239.947,396.502 237.922,396.650 235.821 C 396.797 233.719,397.072 232.000,397.259 232.000 C 397.447 232.000,397.600 231.268,397.600 230.374 C 397.600 229.479,397.792 228.389,398.026 227.951 C 399.030 226.075,400.119 187.976,399.219 186.200 C 398.996 185.760,398.765 184.320,398.707 183.000 L 398.600 180.600 397.700 181.862 M114.000 188.409 C 113.450 188.574,111.380 189.194,109.400 189.787 C 106.011 190.803,95.549 194.425,93.800 195.189 C 93.360 195.382,90.570 196.557,87.600 197.802 C 67.383 206.276,47.221 220.455,36.982 233.400 C 36.112 234.500,35.303 235.490,35.185 235.600 C 33.709 236.974,28.215 245.605,25.889 250.207 C 21.583 258.724,17.600 271.146,17.600 276.059 L 17.600 277.191 34.467 277.296 L 51.335 277.400 52.680 274.820 C 64.170 252.774,92.171 233.930,125.228 225.996 L 129.056 225.077 127.184 220.839 C 124.365 214.455,121.271 204.602,120.223 198.673 C 120.075 197.833,119.371 196.383,118.659 195.451 C 117.948 194.518,116.960 192.775,116.464 191.578 C 115.968 190.380,115.436 189.110,115.281 188.755 C 115.073 188.278,114.739 188.188,114.000 188.409 " stroke="none" fill="#059cbc" fill-rule="evenodd"></path><path id="path1" d="M123.600 226.389 C 87.178 236.173,60.286 255.710,50.728 279.331 C 46.127 290.698,45.181 295.856,44.364 314.000 C 44.111 319.610,43.751 324.494,43.564 324.853 C 43.321 325.318,43.535 325.855,44.311 326.725 C 47.105 329.856,48.887 331.912,49.898 333.175 C 51.348 334.985,65.068 348.800,65.416 348.800 C 65.564 348.800,66.039 349.250,66.471 349.800 C 66.904 350.350,67.393 350.800,67.558 350.800 C 67.723 350.800,68.822 351.700,70.000 352.800 C 71.178 353.900,72.281 354.800,72.453 354.800 C 72.624 354.800,73.194 355.205,73.720 355.700 C 76.107 357.945,77.158 358.800,77.531 358.800 C 77.752 358.800,77.993 358.952,78.067 359.139 C 78.140 359.325,80.180 360.893,82.600 362.624 C 85.020 364.355,87.060 365.913,87.133 366.086 C 87.207 366.258,87.494 366.400,87.771 366.400 C 88.049 366.400,88.799 366.855,89.438 367.410 C 90.077 367.966,91.005 368.526,91.500 368.654 C 91.995 368.782,92.400 369.019,92.400 369.180 C 92.400 369.342,93.070 369.817,93.889 370.237 C 94.708 370.657,95.739 371.322,96.181 371.715 C 96.623 372.109,97.432 372.543,97.979 372.681 C 98.526 372.818,99.336 373.268,99.779 373.681 C 100.222 374.093,100.993 374.534,101.492 374.659 C 101.991 374.784,102.400 375.047,102.400 375.243 C 102.400 375.440,102.670 375.600,103.000 375.600 C 103.330 375.600,103.600 375.766,103.600 375.968 C 103.600 376.171,104.170 376.462,104.867 376.615 C 105.563 376.768,106.481 377.217,106.906 377.613 C 107.331 378.009,108.134 378.447,108.691 378.587 C 109.248 378.727,110.352 379.282,111.144 379.821 C 111.937 380.359,112.994 380.800,113.493 380.800 C 113.992 380.800,114.400 380.980,114.400 381.200 C 114.400 381.420,114.670 381.600,115.000 381.600 C 115.330 381.600,115.600 381.780,115.600 382.000 C 115.600 382.220,115.942 382.400,116.359 382.400 C 116.777 382.400,118.145 382.940,119.400 383.600 C 120.655 384.260,121.902 384.800,122.173 384.800 C 122.443 384.800,123.550 385.249,124.632 385.798 C 125.714 386.347,126.879 386.797,127.220 386.798 C 128.010 386.800,129.993 387.712,129.997 388.075 C 129.999 388.227,130.852 388.479,131.894 388.635 C 132.935 388.791,134.391 389.258,135.128 389.672 C 135.865 390.086,137.263 390.534,138.234 390.667 C 139.205 390.800,140.000 391.064,140.000 391.254 C 140.000 391.444,140.414 391.600,140.920 391.600 C 141.426 391.600,142.030 391.790,142.263 392.023 C 142.496 392.256,143.702 392.551,144.943 392.679 C 146.184 392.807,147.200 393.067,147.200 393.256 C 147.200 393.860,148.305 393.625,148.557 392.967 C 149.021 391.759,148.827 336.424,148.349 333.633 C 146.590 323.350,141.535 319.815,128.600 319.818 C 113.889 319.822,108.373 323.725,107.147 335.000 C 106.276 343.020,103.005 346.415,96.643 345.904 C 87.438 345.165,85.275 333.396,91.831 319.718 C 97.910 307.037,109.687 301.009,128.400 301.003 C 147.357 300.997,157.525 306.519,163.839 320.247 C 167.651 328.537,167.599 327.915,167.600 365.204 C 167.600 397.195,167.605 397.411,168.417 397.918 C 168.909 398.225,171.336 398.523,174.517 398.668 C 177.423 398.801,180.053 399.109,180.362 399.354 C 181.214 400.031,218.182 399.979,218.860 399.300 C 219.176 398.984,220.619 398.788,222.780 398.766 C 226.755 398.727,232.461 397.947,234.200 397.204 C 234.640 397.016,236.346 396.753,237.991 396.620 C 239.636 396.487,241.157 396.203,241.371 395.989 C 241.585 395.775,242.264 395.600,242.880 395.600 C 243.496 395.600,244.000 395.446,244.000 395.257 C 244.000 395.069,245.305 394.794,246.900 394.646 C 248.495 394.499,249.860 394.203,249.933 393.989 C 250.007 393.775,250.491 393.600,251.010 393.600 C 251.528 393.600,252.048 393.446,252.165 393.257 C 252.281 393.069,253.268 392.809,254.358 392.680 C 255.447 392.551,256.668 392.276,257.069 392.069 C 258.633 391.265,259.863 390.847,261.400 390.599 C 262.280 390.457,263.595 389.995,264.323 389.571 C 265.050 389.147,265.950 388.801,266.323 388.802 C 267.314 388.805,270.800 387.496,270.800 387.121 C 270.800 386.944,271.159 386.800,271.597 386.800 C 272.583 386.800,275.600 385.523,275.600 385.106 C 275.600 384.938,276.067 384.800,276.638 384.800 C 277.588 384.800,279.918 383.770,280.401 383.137 C 280.511 382.992,281.276 382.747,282.101 382.592 C 282.925 382.438,283.600 382.151,283.600 381.955 C 283.600 381.760,283.870 381.600,284.200 381.600 C 284.530 381.600,284.800 381.420,284.800 381.200 C 284.800 380.980,285.177 380.800,285.638 380.800 C 286.565 380.800,288.800 379.608,288.800 379.114 C 288.800 378.941,289.064 378.800,289.386 378.800 C 290.150 378.800,292.800 377.535,292.800 377.170 C 292.800 377.016,293.430 376.771,294.200 376.626 C 294.970 376.482,295.600 376.205,295.600 376.011 C 295.600 375.817,296.320 375.340,297.200 374.952 C 298.080 374.564,298.800 374.101,298.800 373.923 C 298.800 373.745,299.070 373.600,299.400 373.600 C 299.730 373.600,300.000 373.442,300.000 373.250 C 300.000 373.058,300.495 372.800,301.100 372.677 C 301.705 372.555,302.597 372.083,303.083 371.627 C 303.569 371.172,304.252 370.800,304.601 370.800 C 304.951 370.800,305.686 370.350,306.236 369.800 C 306.786 369.250,307.395 368.800,307.590 368.800 C 307.784 368.800,308.181 368.575,308.471 368.299 C 308.762 368.024,309.697 367.439,310.549 366.999 C 311.401 366.560,312.299 365.885,312.545 365.500 C 312.791 365.115,313.211 364.800,313.478 364.800 C 313.745 364.800,314.386 364.395,314.903 363.900 C 315.420 363.405,316.299 362.730,316.856 362.400 C 319.696 360.719,320.800 359.869,320.800 359.360 C 320.800 359.052,321.135 358.800,321.544 358.800 C 321.953 358.800,322.618 358.361,323.021 357.824 C 323.424 357.287,324.169 356.744,324.677 356.616 C 330.716 355.101,315.290 354.878,253.408 355.588 C 231.636 355.837,222.063 355.818,221.708 355.524 C 220.919 354.869,221.008 337.519,221.823 333.144 C 224.154 320.627,236.180 310.685,248.306 311.249 L 250.600 311.356 251.032 307.978 C 252.611 295.618,263.617 284.354,273.223 285.269 L 274.600 285.400 274.709 292.500 L 274.818 299.600 310.586 299.600 C 334.015 299.600,346.438 299.462,346.600 299.200 C 347.161 298.293,342.195 286.172,337.795 277.709 C 321.341 246.059,293.803 226.728,265.280 226.806 L 263.000 226.812 262.000 228.878 C 257.704 237.753,248.721 248.897,240.700 255.302 C 237.910 257.529,235.563 260.095,229.308 267.754 C 210.884 290.312,207.431 294.472,205.889 295.969 C 198.959 302.695,190.619 300.842,182.782 290.836 C 182.022 289.866,178.879 285.996,175.798 282.236 C 172.717 278.476,168.657 273.510,166.776 271.200 C 156.570 258.669,155.072 256.983,151.481 253.986 C 143.520 247.341,135.055 236.727,130.359 227.500 C 128.997 224.824,129.261 224.868,123.600 226.389 M327.600 354.000 C 327.093 354.440,326.857 354.800,327.077 354.800 C 327.296 354.800,327.802 354.440,328.200 354.000 C 328.598 353.560,328.834 353.200,328.723 353.200 C 328.613 353.200,328.107 353.560,327.600 354.000 " stroke="none" fill="#044574" fill-rule="evenodd"></path><path id="path2" d="M257.800 157.461 C 254.564 164.553,246.688 173.538,241.200 176.399 C 240.650 176.685,240.110 177.028,240.000 177.160 C 239.401 177.879,231.159 181.878,228.800 182.594 C 228.250 182.761,227.620 183.032,227.400 183.195 C 226.804 183.637,218.446 186.286,216.600 186.617 C 215.720 186.775,214.820 187.038,214.600 187.202 C 214.380 187.366,213.660 187.597,213.000 187.716 C 212.340 187.835,210.270 188.228,208.400 188.589 C 196.171 190.951,191.171 191.401,177.200 191.394 C 165.096 191.388,159.644 191.020,153.000 189.759 C 151.240 189.425,148.853 188.980,147.696 188.770 C 146.538 188.559,144.648 188.132,143.496 187.819 C 138.078 186.349,135.334 185.553,134.600 185.238 C 134.160 185.049,132.450 184.398,130.800 183.791 C 127.437 182.553,119.097 178.575,116.500 176.970 L 114.800 175.919 114.800 179.900 C 114.800 182.089,114.959 184.402,115.153 185.040 C 116.647 189.957,117.099 191.216,117.942 192.800 C 118.468 193.790,119.326 195.060,119.849 195.622 C 120.372 196.184,120.800 197.131,120.800 197.727 C 120.800 198.323,120.965 199.123,121.167 199.505 C 121.369 199.887,121.834 201.640,122.199 203.400 C 122.565 205.160,123.012 206.960,123.192 207.400 C 123.373 207.840,123.825 209.280,124.198 210.600 C 124.570 211.920,125.195 213.720,125.585 214.600 C 125.976 215.480,126.424 216.650,126.580 217.200 C 127.382 220.023,132.487 230.015,135.238 234.146 C 136.097 235.436,136.800 236.636,136.800 236.812 C 136.800 236.989,136.935 237.193,137.100 237.267 C 137.265 237.340,138.210 238.480,139.200 239.800 C 140.190 241.120,141.654 242.920,142.454 243.800 C 143.253 244.680,144.603 246.220,145.454 247.222 C 146.304 248.225,147.900 249.803,149.000 250.730 C 150.100 251.657,151.571 252.907,152.269 253.508 C 156.284 256.961,157.686 258.012,160.970 260.027 C 191.812 278.948,229.772 271.550,252.436 242.200 C 253.625 240.660,254.734 239.340,254.899 239.267 C 255.065 239.193,255.200 238.993,255.200 238.822 C 255.200 238.651,256.096 237.151,257.192 235.490 C 260.018 231.204,264.024 223.261,265.812 218.400 C 266.176 217.410,266.625 216.240,266.809 215.800 C 266.992 215.360,267.439 214.010,267.800 212.800 C 268.161 211.590,268.605 210.240,268.786 209.800 C 268.967 209.360,269.421 207.470,269.793 205.600 C 270.166 203.730,270.635 201.887,270.836 201.505 C 271.036 201.123,271.200 200.273,271.200 199.616 C 271.200 198.676,271.473 198.279,272.480 197.758 C 273.185 197.394,274.008 196.850,274.309 196.548 C 274.610 196.247,275.069 195.999,275.329 195.997 C 276.742 195.989,279.428 189.829,280.281 184.636 C 281.728 175.833,279.349 166.684,274.509 162.440 C 273.355 161.428,272.408 160.403,272.405 160.163 C 272.400 159.724,269.864 158.800,268.664 158.800 C 267.721 158.800,262.032 156.477,260.765 155.575 C 259.224 154.478,259.135 154.535,257.800 157.461 M177.504 242.877 C 181.164 247.487,184.712 249.067,192.538 249.571 C 200.857 250.106,208.186 249.180,212.240 247.082 C 213.455 246.453,217.200 242.853,217.200 242.313 C 217.200 241.810,218.345 241.951,219.620 242.610 C 222.812 244.261,216.352 252.607,210.497 254.398 C 209.673 254.650,208.640 255.007,208.200 255.192 C 204.098 256.918,191.917 256.783,185.600 254.941 C 178.457 252.858,170.981 244.761,174.300 242.703 C 175.785 241.782,176.673 241.830,177.504 242.877 M23.212 295.200 C 23.212 295.890,23.880 297.070,24.111 296.788 C 24.196 296.685,24.029 296.150,23.739 295.600 C 23.448 295.049,23.212 294.869,23.212 295.200 M40.690 321.876 C 40.587 322.054,40.839 322.546,41.251 322.970 C 42.114 323.857,42.241 323.352,41.426 322.276 C 41.124 321.878,40.793 321.698,40.690 321.876 " stroke="none" fill="#dbab8b" fill-rule="evenodd"></path><path id="path3" d="M176.300 0.280 C 175.035 0.368,174.000 0.584,174.000 0.761 C 174.000 0.937,171.908 1.184,169.350 1.310 C 166.793 1.436,164.507 1.733,164.270 1.970 C 164.034 2.206,163.246 2.400,162.520 2.400 C 161.794 2.400,161.200 2.553,161.200 2.741 C 161.200 2.928,159.727 3.195,157.927 3.334 C 156.127 3.473,154.471 3.769,154.247 3.993 C 154.023 4.217,153.514 4.400,153.115 4.400 C 152.716 4.400,152.077 4.571,151.695 4.780 C 151.313 4.990,149.968 5.272,148.706 5.408 C 147.445 5.545,146.309 5.823,146.183 6.028 C 146.056 6.233,145.603 6.400,145.176 6.400 C 144.749 6.400,144.400 6.554,144.400 6.743 C 144.400 6.932,143.275 7.203,141.900 7.347 C 140.525 7.490,139.340 7.786,139.267 8.004 C 139.193 8.222,138.799 8.400,138.390 8.400 C 137.982 8.400,137.536 8.580,137.400 8.800 C 137.264 9.020,136.668 9.201,136.076 9.202 C 135.484 9.204,134.484 9.474,133.854 9.802 C 133.224 10.131,132.459 10.400,132.154 10.400 C 131.849 10.400,131.600 10.580,131.600 10.800 C 131.600 11.020,131.151 11.200,130.603 11.200 C 129.463 11.200,126.400 12.435,126.400 12.894 C 126.400 13.062,125.932 13.200,125.360 13.200 C 124.366 13.200,121.619 14.271,121.200 14.821 C 121.090 14.966,120.330 15.208,119.511 15.358 C 118.693 15.509,117.793 15.956,117.511 16.351 C 117.230 16.747,116.281 17.185,115.403 17.326 C 114.525 17.466,113.745 17.765,113.670 17.991 C 113.595 18.216,113.278 18.400,112.967 18.400 C 112.655 18.400,112.400 18.580,112.400 18.800 C 112.400 19.020,111.963 19.200,111.429 19.200 C 110.894 19.200,110.187 19.470,109.857 19.800 C 109.527 20.130,109.064 20.400,108.829 20.400 C 108.593 20.400,108.400 20.560,108.400 20.755 C 108.400 20.951,107.770 21.229,107.000 21.374 C 106.230 21.518,105.600 21.808,105.600 22.018 C 105.600 22.228,105.330 22.400,105.000 22.400 C 104.670 22.400,104.400 22.566,104.400 22.768 C 104.400 22.971,103.860 23.255,103.200 23.400 C 102.541 23.545,101.776 23.985,101.500 24.378 C 101.225 24.771,100.415 25.221,99.700 25.378 C 98.985 25.535,98.400 25.809,98.400 25.986 C 98.400 26.164,97.725 26.626,96.900 27.014 C 96.075 27.401,95.310 27.828,95.200 27.963 C 95.090 28.098,94.303 28.566,93.451 29.004 C 92.599 29.442,91.701 30.115,91.455 30.500 C 91.209 30.885,90.775 31.200,90.490 31.200 C 89.986 31.200,88.002 32.324,87.600 32.837 C 87.490 32.977,87.004 33.216,86.520 33.367 C 86.037 33.517,85.530 33.992,85.394 34.420 C 85.257 34.849,84.793 35.200,84.360 35.200 C 83.928 35.200,83.471 35.470,83.345 35.800 C 83.218 36.130,82.864 36.400,82.557 36.400 C 82.251 36.400,82.000 36.539,82.000 36.709 C 82.000 36.879,81.370 37.357,80.600 37.772 C 79.830 38.187,79.200 38.649,79.200 38.799 C 79.200 38.949,78.750 39.277,78.200 39.527 C 77.650 39.778,77.200 40.257,77.200 40.591 C 77.200 40.928,76.852 41.200,76.420 41.200 C 75.991 41.200,75.496 41.442,75.320 41.737 C 75.144 42.032,74.460 42.617,73.800 43.037 C 72.572 43.818,72.015 44.266,69.641 46.386 C 68.893 47.054,68.140 47.600,67.968 47.600 C 67.795 47.600,67.546 47.941,67.414 48.357 C 67.282 48.773,66.806 49.210,66.357 49.327 C 65.908 49.445,65.443 49.914,65.324 50.370 C 65.204 50.827,64.847 51.200,64.529 51.200 C 63.774 51.200,51.200 63.774,51.200 64.529 C 51.200 64.847,50.827 65.204,50.370 65.324 C 49.914 65.443,49.445 65.908,49.327 66.357 C 49.210 66.806,48.773 67.282,48.357 67.414 C 47.941 67.546,47.600 67.795,47.600 67.968 C 47.600 68.140,47.054 68.893,46.386 69.641 C 44.266 72.015,43.818 72.572,43.037 73.800 C 42.617 74.460,42.032 75.144,41.737 75.320 C 41.442 75.496,41.200 75.991,41.200 76.420 C 41.200 76.852,40.928 77.200,40.591 77.200 C 40.257 77.200,39.778 77.650,39.527 78.200 C 39.277 78.750,38.949 79.200,38.799 79.200 C 38.649 79.200,38.187 79.830,37.772 80.600 C 37.357 81.370,36.879 82.000,36.709 82.000 C 36.539 82.000,36.400 82.251,36.400 82.557 C 36.400 82.864,36.130 83.218,35.800 83.345 C 35.470 83.471,35.200 83.928,35.200 84.360 C 35.200 84.793,34.849 85.257,34.420 85.394 C 33.992 85.530,33.517 86.037,33.367 86.520 C 33.216 87.004,32.977 87.490,32.837 87.600 C 32.324 88.002,31.200 89.986,31.200 90.490 C 31.200 90.775,30.885 91.209,30.500 91.455 C 30.115 91.701,29.442 92.599,29.004 93.451 C 28.566 94.303,28.098 95.090,27.963 95.200 C 27.828 95.310,27.401 96.075,27.014 96.900 C 26.626 97.725,26.164 98.400,25.986 98.400 C 25.809 98.400,25.535 98.985,25.378 99.700 C 25.221 100.415,24.771 101.225,24.378 101.500 C 23.985 101.776,23.545 102.541,23.400 103.200 C 23.255 103.860,22.971 104.400,22.768 104.400 C 22.566 104.400,22.400 104.670,22.400 105.000 C 22.400 105.330,22.228 105.600,22.018 105.600 C 21.808 105.600,21.518 106.230,21.374 107.000 C 21.229 107.770,20.951 108.400,20.755 108.400 C 20.560 108.400,20.400 108.593,20.400 108.829 C 20.400 109.064,20.130 109.527,19.800 109.857 C 19.470 110.187,19.200 110.894,19.200 111.429 C 19.200 111.963,19.020 112.400,18.800 112.400 C 18.580 112.400,18.400 112.655,18.400 112.967 C 18.400 113.278,18.216 113.595,17.991 113.670 C 17.765 113.745,17.466 114.525,17.326 115.403 C 17.185 116.281,16.747 117.230,16.351 117.511 C 15.956 117.793,15.509 118.693,15.358 119.511 C 15.208 120.330,14.966 121.090,14.821 121.200 C 14.271 121.619,13.200 124.366,13.200 125.360 C 13.200 125.932,13.062 126.400,12.894 126.400 C 12.435 126.400,11.200 129.463,11.200 130.603 C 11.200 131.151,11.020 131.600,10.800 131.600 C 10.580 131.600,10.400 131.849,10.400 132.154 C 10.400 132.459,10.131 133.224,9.802 133.854 C 9.474 134.484,9.204 135.484,9.202 136.076 C 9.201 136.668,9.020 137.264,8.800 137.400 C 8.580 137.536,8.400 137.982,8.400 138.390 C 8.400 138.799,8.222 139.193,8.004 139.267 C 7.786 139.340,7.490 140.525,7.347 141.900 C 7.203 143.275,6.932 144.400,6.743 144.400 C 6.554 144.400,6.400 144.749,6.400 145.176 C 6.400 145.603,6.233 146.056,6.028 146.183 C 5.823 146.309,5.545 147.445,5.408 148.706 C 5.272 149.968,4.990 151.313,4.780 151.695 C 4.571 152.077,4.400 152.716,4.400 153.115 C 4.400 153.514,4.217 154.023,3.993 154.247 C 3.769 154.471,3.473 156.127,3.334 157.927 C 3.195 159.727,2.928 161.200,2.741 161.200 C 2.553 161.200,2.400 161.794,2.400 162.520 C 2.400 163.246,2.209 164.031,1.975 164.265 C 1.741 164.499,1.445 166.740,1.316 169.245 C 1.181 171.865,0.894 173.921,0.641 174.085 C 0.328 174.288,0.200 181.505,0.200 199.000 C 0.200 216.495,0.328 223.712,0.641 223.915 C 0.894 224.079,1.181 226.135,1.316 228.755 C 1.445 231.260,1.741 233.501,1.975 233.735 C 2.209 233.969,2.400 234.754,2.400 235.480 C 2.400 236.206,2.553 236.800,2.741 236.800 C 2.928 236.800,3.195 238.273,3.334 240.073 C 3.473 241.873,3.769 243.529,3.993 243.753 C 4.217 243.977,4.400 244.486,4.400 244.885 C 4.400 245.284,4.571 245.923,4.780 246.305 C 4.990 246.687,5.272 248.032,5.408 249.294 C 5.545 250.555,5.823 251.691,6.028 251.817 C 6.233 251.944,6.400 252.397,6.400 252.824 C 6.400 253.251,6.554 253.600,6.743 253.600 C 6.932 253.600,7.203 254.725,7.347 256.100 C 7.490 257.475,7.786 258.660,8.004 258.733 C 8.222 258.807,8.400 259.201,8.400 259.610 C 8.400 260.018,8.580 260.464,8.800 260.600 C 9.020 260.736,9.201 261.332,9.202 261.924 C 9.204 262.516,9.474 263.516,9.802 264.146 C 10.131 264.776,10.400 265.541,10.400 265.846 C 10.400 266.151,10.580 266.400,10.800 266.400 C 11.020 266.400,11.200 266.849,11.200 267.397 C 11.200 268.537,12.435 271.600,12.894 271.600 C 13.062 271.600,13.200 272.049,13.200 272.597 C 13.200 273.737,14.435 276.800,14.894 276.800 C 15.062 276.800,15.200 277.250,15.200 277.800 C 15.200 280.139,16.611 278.406,17.033 275.550 C 22.909 235.692,56.390 205.347,113.600 188.029 C 114.484 187.762,114.593 187.521,114.539 185.963 C 114.506 184.993,114.438 182.244,114.389 179.854 C 114.304 175.723,114.249 175.465,113.269 174.654 C 105.457 168.181,102.958 161.124,105.232 151.955 C 107.283 143.687,114.969 129.973,128.080 111.186 C 145.385 86.391,167.482 80.653,220.600 87.161 C 223.434 87.508,226.523 88.007,233.400 89.227 C 242.596 90.859,253.224 97.500,257.076 104.021 C 257.993 105.573,258.176 105.516,258.785 103.500 C 262.312 91.808,265.127 85.328,270.293 77.000 C 281.370 59.146,298.388 46.690,317.000 42.814 C 319.931 42.204,321.901 41.500,321.269 41.290 C 321.011 41.204,320.800 40.874,320.800 40.558 C 320.800 40.242,320.350 39.778,319.800 39.527 C 319.250 39.277,318.800 38.949,318.800 38.799 C 318.800 38.649,318.170 38.187,317.400 37.772 C 316.630 37.357,316.000 36.879,316.000 36.709 C 316.000 36.539,315.749 36.400,315.443 36.400 C 315.136 36.400,314.782 36.130,314.655 35.800 C 314.529 35.470,314.072 35.200,313.640 35.200 C 313.207 35.200,312.743 34.849,312.606 34.420 C 312.470 33.992,311.963 33.517,311.480 33.367 C 310.996 33.216,310.510 32.977,310.400 32.837 C 309.998 32.324,308.014 31.200,307.510 31.200 C 307.225 31.200,306.791 30.885,306.545 30.500 C 306.299 30.115,305.401 29.442,304.549 29.004 C 303.697 28.566,302.910 28.098,302.800 27.963 C 302.690 27.828,301.925 27.401,301.100 27.014 C 300.275 26.626,299.600 26.164,299.600 25.986 C 299.600 25.809,299.015 25.535,298.300 25.378 C 297.585 25.221,296.775 24.771,296.500 24.378 C 296.224 23.985,295.459 23.545,294.800 23.400 C 294.140 23.255,293.600 22.971,293.600 22.768 C 293.600 22.566,293.330 22.400,293.000 22.400 C 292.670 22.400,292.400 22.228,292.400 22.018 C 292.400 21.808,291.770 21.518,291.000 21.374 C 290.230 21.229,289.600 20.951,289.600 20.755 C 289.600 20.560,289.407 20.400,289.171 20.400 C 288.936 20.400,288.473 20.130,288.143 19.800 C 287.813 19.470,287.106 19.200,286.571 19.200 C 286.037 19.200,285.600 19.020,285.600 18.800 C 285.600 18.580,285.345 18.400,285.033 18.400 C 284.722 18.400,284.405 18.216,284.330 17.991 C 284.255 17.765,283.475 17.466,282.597 17.326 C 281.719 17.185,280.770 16.747,280.489 16.351 C 280.207 15.956,279.307 15.509,278.489 15.358 C 277.670 15.208,276.910 14.966,276.800 14.821 C 276.381 14.271,273.634 13.200,272.640 13.200 C 272.068 13.200,271.600 13.062,271.600 12.894 C 271.600 12.435,268.537 11.200,267.397 11.200 C 266.849 11.200,266.400 11.020,266.400 10.800 C 266.400 10.580,266.151 10.400,265.846 10.400 C 265.541 10.400,264.776 10.131,264.146 9.802 C 263.516 9.474,262.516 9.204,261.924 9.202 C 261.332 9.201,260.736 9.020,260.600 8.800 C 260.464 8.580,260.018 8.400,259.610 8.400 C 259.201 8.400,258.807 8.222,258.733 8.004 C 258.660 7.786,257.475 7.490,256.100 7.347 C 254.725 7.203,253.600 6.932,253.600 6.743 C 253.600 6.554,253.251 6.400,252.824 6.400 C 252.397 6.400,251.944 6.233,251.817 6.028 C 251.691 5.823,250.555 5.545,249.294 5.408 C 248.032 5.272,246.687 4.990,246.305 4.780 C 245.923 4.571,245.284 4.400,244.885 4.400 C 244.486 4.400,243.977 4.217,243.753 3.993 C 243.529 3.769,241.873 3.473,240.073 3.334 C 238.273 3.195,236.800 2.928,236.800 2.741 C 236.800 2.553,236.206 2.400,235.480 2.400 C 234.754 2.400,233.969 2.209,233.735 1.975 C 233.501 1.741,231.260 1.445,228.755 1.316 C 226.134 1.181,224.079 0.894,223.915 0.641 C 223.637 0.211,181.843 -0.106,176.300 0.280 M158.046 259.426 C 158.401 259.852,160.801 262.810,163.378 266.000 C 169.408 273.462,170.332 274.598,171.136 275.533 C 171.501 275.957,175.167 280.430,179.283 285.472 C 189.063 297.452,191.321 299.200,197.023 299.200 C 202.112 299.200,204.086 297.642,213.200 286.430 C 215.950 283.048,219.914 278.192,222.009 275.640 C 224.104 273.088,227.452 269.010,229.449 266.578 C 231.445 264.146,233.421 261.629,233.840 260.984 L 234.600 259.811 232.800 260.925 C 211.654 274.020,183.820 274.334,162.612 261.716 C 157.222 258.509,157.324 258.560,158.046 259.426 M116.810 302.246 C 109.510 303.842,103.047 307.150,98.482 311.628 C 96.543 313.531,92.800 318.356,92.800 318.953 C 92.800 319.091,92.390 320.058,91.889 321.102 C 87.874 329.471,87.735 339.619,91.589 343.053 C 97.658 348.461,106.400 344.111,106.400 335.683 C 106.400 324.490,113.525 319.200,128.600 319.200 C 139.964 319.200,143.906 321.027,147.160 327.800 C 149.540 332.755,149.600 333.660,149.600 364.843 C 149.600 392.339,149.623 393.223,150.373 393.973 C 151.048 394.648,151.209 394.671,151.638 394.154 C 151.992 393.727,152.209 393.691,152.414 394.023 C 152.571 394.277,153.667 394.560,154.850 394.652 C 156.032 394.743,157.060 394.994,157.133 395.209 C 157.207 395.424,157.687 395.600,158.200 395.600 C 158.713 395.600,159.202 395.806,159.286 396.057 C 159.399 396.397,159.653 396.400,160.277 396.066 C 160.920 395.722,161.217 395.739,161.550 396.140 C 161.798 396.439,162.483 396.591,163.145 396.493 C 163.783 396.400,164.409 396.490,164.535 396.695 C 164.661 396.899,165.313 396.986,165.982 396.888 L 167.200 396.709 167.198 366.055 C 167.197 332.925,167.131 331.687,165.010 325.050 C 161.049 312.654,152.329 304.720,139.917 302.221 C 135.834 301.399,120.612 301.416,116.810 302.246 " stroke="none" fill="#fbfbfb" fill-rule="evenodd"></path><path id="path4" d="M320.800 42.668 C 291.804 47.281,268.672 70.345,259.386 103.900 C 258.532 106.986,258.488 106.985,256.243 103.840 C 253.639 100.190,246.400 93.772,246.400 95.113 C 246.400 95.310,246.805 95.659,247.300 95.889 C 249.183 96.761,252.462 99.761,254.768 102.723 C 256.087 104.415,257.609 106.250,258.151 106.800 C 258.694 107.350,259.584 108.817,260.129 110.061 C 260.675 111.304,261.470 112.670,261.897 113.097 C 263.500 114.700,267.826 126.488,268.393 130.800 C 268.581 132.230,269.108 135.290,269.564 137.600 C 270.020 139.910,270.569 142.700,270.784 143.800 C 271.463 147.271,272.555 157.978,272.260 158.273 C 271.479 159.054,264.742 156.898,261.156 154.720 C 258.781 153.278,259.021 153.175,257.474 156.300 C 250.705 169.970,241.273 177.597,223.786 183.538 C 216.980 185.850,213.754 186.650,202.600 188.787 C 186.110 191.947,157.105 190.972,143.000 186.783 C 136.671 184.903,130.930 183.032,130.620 182.748 C 130.411 182.557,129.983 182.400,129.669 182.400 C 129.355 182.400,126.531 181.151,123.395 179.624 C 108.721 172.484,103.118 163.482,106.200 152.000 C 106.938 149.251,106.926 148.503,106.176 150.547 C 100.947 164.810,110.771 176.769,134.262 184.737 C 162.465 194.303,199.144 193.511,227.597 182.721 C 242.502 177.068,252.152 168.807,257.774 156.888 C 259.121 154.032,259.067 154.054,261.294 155.459 C 263.549 156.883,268.582 158.682,270.800 158.857 C 272.595 159.000,272.600 158.996,272.742 157.600 C 272.996 155.106,270.436 137.434,269.210 133.216 C 268.625 131.204,268.725 131.171,277.870 130.369 C 286.700 129.594,294.565 128.505,300.782 127.196 C 305.510 126.201,306.406 126.185,306.379 127.100 C 306.367 127.485,305.852 130.770,305.233 134.400 C 304.615 138.030,304.177 141.121,304.259 141.270 C 304.895 142.410,326.824 134.633,340.600 128.382 C 356.908 120.981,376.800 109.255,376.800 107.041 C 376.800 105.660,376.389 104.760,375.896 105.064 C 375.662 105.209,375.594 105.133,375.742 104.894 C 375.888 104.658,375.779 104.225,375.501 103.932 C 375.222 103.640,374.637 102.651,374.201 101.736 C 373.764 100.821,373.271 100.156,373.104 100.260 C 372.937 100.363,372.799 100.122,372.797 99.724 C 372.794 98.760,371.421 96.712,371.037 97.097 C 370.870 97.264,370.778 97.220,370.832 97.000 C 370.978 96.409,370.359 94.400,370.030 94.400 C 369.875 94.400,369.343 93.680,368.848 92.800 C 368.353 91.920,367.770 91.200,367.551 91.200 C 367.332 91.200,367.264 91.020,367.400 90.800 C 367.536 90.580,367.457 90.400,367.224 90.400 C 366.991 90.400,366.800 90.149,366.800 89.843 C 366.800 89.536,366.530 89.182,366.200 89.055 C 365.870 88.929,365.597 88.414,365.594 87.913 C 365.590 87.262,365.491 87.153,365.250 87.532 C 365.009 87.913,364.848 87.743,364.684 86.932 C 364.558 86.310,364.118 85.440,363.707 85.000 C 363.296 84.560,362.835 83.874,362.683 83.475 C 362.523 83.055,362.210 82.870,361.941 83.036 C 361.673 83.202,361.584 83.150,361.730 82.913 C 361.869 82.688,361.627 82.092,361.192 81.590 C 360.756 81.088,360.397 80.390,360.394 80.039 C 360.389 79.480,360.339 79.475,360.000 80.000 C 359.671 80.509,359.611 80.490,359.606 79.876 C 359.603 79.478,359.420 79.264,359.200 79.400 C 358.980 79.536,358.800 79.285,358.800 78.842 C 358.800 78.399,358.386 77.623,357.881 77.117 C 357.375 76.612,356.834 75.866,356.679 75.461 C 356.523 75.056,356.022 74.626,355.564 74.507 C 355.107 74.387,354.901 74.179,355.108 74.045 C 355.314 73.910,355.122 73.440,354.680 73.000 C 354.238 72.560,354.014 72.438,354.180 72.730 C 354.432 73.168,354.339 73.169,353.642 72.733 C 353.179 72.444,352.800 72.060,352.800 71.880 C 352.800 71.700,353.013 71.684,353.273 71.845 C 353.532 72.005,353.241 71.476,352.625 70.668 C 352.009 69.861,351.359 69.200,351.179 69.200 C 351.000 69.200,350.743 68.849,350.606 68.420 C 350.470 67.992,350.026 67.535,349.619 67.406 C 349.212 67.277,348.749 66.683,348.590 66.086 C 348.431 65.489,348.216 65.233,348.112 65.517 C 347.983 65.867,347.619 65.681,346.984 64.942 C 346.468 64.341,346.153 63.676,346.285 63.463 C 346.416 63.250,346.352 63.182,346.143 63.312 C 345.933 63.441,345.500 63.382,345.181 63.180 C 344.788 62.931,344.761 62.810,345.096 62.806 C 345.429 62.802,345.367 62.537,344.907 62.000 C 344.530 61.560,343.915 61.200,343.539 61.200 C 343.145 61.200,342.802 60.834,342.728 60.336 C 342.658 59.861,342.270 59.425,341.866 59.367 C 341.048 59.249,339.964 57.982,340.265 57.495 C 340.372 57.322,340.311 57.206,340.130 57.237 C 339.247 57.391,338.845 57.122,338.728 56.304 C 338.658 55.811,338.279 55.347,337.888 55.272 C 337.496 55.198,336.506 54.515,335.688 53.755 C 334.869 52.995,333.435 51.794,332.500 51.086 C 331.566 50.379,330.683 49.350,330.539 48.800 C 330.233 47.631,329.718 47.215,328.570 47.206 C 328.113 47.203,327.317 46.750,326.800 46.200 C 326.283 45.650,325.715 45.200,325.538 45.200 C 325.360 45.200,324.566 44.570,323.773 43.800 C 322.980 43.030,322.212 42.425,322.066 42.454 C 321.920 42.484,321.350 42.581,320.800 42.668 M175.730 85.615 C 171.141 85.992,167.898 86.431,168.114 86.647 C 168.204 86.738,171.125 86.539,174.604 86.206 C 182.666 85.434,190.163 85.439,201.035 86.225 C 205.791 86.569,209.760 86.773,209.855 86.678 C 210.811 85.722,184.433 84.901,175.730 85.615 M163.400 87.393 C 162.300 87.679,160.884 88.032,160.253 88.176 C 159.622 88.321,159.196 88.530,159.307 88.641 C 159.527 88.861,164.905 87.727,166.200 87.187 L 167.000 86.854 166.200 86.863 C 165.760 86.869,164.500 87.107,163.400 87.393 M212.800 87.200 C 213.350 87.376,214.700 87.516,215.800 87.510 L 217.800 87.500 216.000 87.180 C 213.478 86.731,211.377 86.744,212.800 87.200 M219.400 88.007 C 220.280 88.181,222.260 88.419,223.800 88.536 L 226.600 88.750 223.600 88.200 C 221.950 87.898,219.970 87.660,219.200 87.671 L 217.800 87.692 219.400 88.007 M155.475 89.673 C 154.196 90.119,153.242 90.576,153.356 90.689 C 153.586 90.919,157.588 89.617,158.180 89.119 C 158.764 88.629,158.057 88.774,155.475 89.673 M228.200 89.185 C 228.640 89.367,230.260 89.733,231.800 89.998 C 233.340 90.264,235.050 90.578,235.600 90.697 C 236.150 90.816,236.498 90.800,236.373 90.662 C 236.132 90.397,228.632 88.781,227.856 88.827 C 227.605 88.842,227.760 89.003,228.200 89.185 M150.677 91.696 C 149.840 92.131,149.237 92.571,149.338 92.672 C 149.543 92.876,152.800 91.296,152.800 90.992 C 152.800 90.686,152.305 90.850,150.677 91.696 M237.420 91.119 C 237.629 91.295,238.790 91.777,240.000 92.190 C 241.210 92.603,242.981 93.374,243.935 93.903 C 244.889 94.431,245.761 94.772,245.874 94.659 C 246.152 94.381,242.324 92.469,239.646 91.547 C 237.245 90.721,236.857 90.646,237.420 91.119 M145.587 94.527 C 140.172 97.995,136.158 101.608,131.953 106.800 C 129.484 109.849,126.679 114.000,127.088 114.000 C 127.275 114.000,127.767 113.415,128.182 112.700 C 129.754 109.994,134.179 104.595,137.279 101.601 C 140.358 98.628,142.041 97.310,145.700 95.009 C 147.405 93.937,148.800 93.002,148.800 92.930 C 148.800 92.586,147.987 92.990,145.587 94.527 M122.715 120.100 C 113.839 133.510,106.009 147.743,106.976 148.709 C 107.089 148.822,107.292 148.574,107.427 148.157 C 109.132 142.901,113.979 134.231,122.610 121.000 C 126.807 114.567,126.909 114.400,126.667 114.400 C 126.568 114.400,124.789 116.965,122.715 120.100 M309.700 190.012 C 307.138 191.042,312.789 198.026,318.000 200.269 C 330.756 205.760,348.287 202.335,354.071 193.222 C 356.395 189.560,353.928 188.259,350.946 191.575 C 343.701 199.634,320.039 199.529,312.889 191.406 C 311.203 189.491,311.105 189.448,309.700 190.012 M130.359 227.500 C 135.600 237.797,148.957 253.681,154.800 256.564 C 155.130 256.727,154.684 256.262,153.810 255.530 C 144.684 247.896,137.555 239.454,132.165 229.900 C 129.357 224.923,128.401 223.653,130.359 227.500 M260.750 230.500 C 256.711 238.425,248.830 248.053,241.117 254.487 C 236.280 258.522,235.390 259.518,239.491 256.307 C 246.215 251.042,251.970 244.762,256.953 237.250 C 260.161 232.415,262.242 228.800,261.816 228.800 C 261.706 228.800,261.226 229.565,260.750 230.500 M174.344 243.174 L 173.400 243.947 174.345 245.753 C 178.006 252.752,185.062 255.800,197.600 255.800 C 209.241 255.799,215.765 252.965,219.627 246.232 C 221.085 243.690,221.087 243.724,219.396 242.917 L 217.991 242.248 215.861 244.482 C 208.483 252.222,186.100 252.300,178.594 244.611 C 176.227 242.187,175.747 242.025,174.344 243.174 M178.157 244.974 C 186.539 253.559,212.381 252.539,217.484 243.421 C 217.880 242.715,220.000 243.273,220.000 244.084 C 220.000 245.767,216.052 250.224,212.827 252.184 C 206.073 256.286,190.249 256.650,182.869 252.872 C 176.681 249.704,172.197 243.216,175.917 242.813 C 175.982 242.806,176.990 243.778,178.157 244.974 M274.399 292.319 L 274.598 299.400 274.709 292.630 C 274.770 288.906,274.680 285.720,274.510 285.549 C 274.339 285.378,274.290 288.424,274.399 292.319 M44.537 308.200 C 44.539 309.960,44.609 310.630,44.693 309.689 C 44.778 308.749,44.777 307.309,44.691 306.489 C 44.605 305.670,44.536 306.440,44.537 308.200 M250.790 309.681 C 250.684 310.716,250.745 311.415,250.926 311.234 C 251.107 311.053,251.193 310.207,251.119 309.353 L 250.983 307.800 250.790 309.681 M245.505 311.483 C 246.002 311.579,246.722 311.575,247.105 311.475 C 247.487 311.375,247.080 311.296,246.200 311.301 C 245.320 311.305,245.007 311.387,245.505 311.483 M44.120 316.000 C 44.120 317.210,44.195 317.705,44.287 317.100 C 44.378 316.495,44.378 315.505,44.287 314.900 C 44.195 314.295,44.120 314.790,44.120 316.000 M228.985 319.300 L 227.000 321.400 229.100 319.415 C 230.255 318.323,231.200 317.378,231.200 317.315 C 231.200 317.017,230.829 317.349,228.985 319.300 M221.340 338.800 C 221.340 340.670,221.409 341.435,221.493 340.500 C 221.577 339.565,221.577 338.035,221.493 337.100 C 221.409 336.165,221.340 336.930,221.340 338.800 M224.700 355.897 C 226.295 355.973,228.905 355.973,230.500 355.897 C 232.095 355.821,230.790 355.759,227.600 355.759 C 224.410 355.759,223.105 355.821,224.700 355.897 " stroke="none" fill="#755e55" fill-rule="evenodd"></path><path id="path5" d="M173.600 86.240 C 170.410 86.541,167.170 86.966,166.400 87.183 C 165.630 87.401,163.650 87.870,162.000 88.226 C 160.350 88.582,158.640 89.023,158.200 89.206 C 157.760 89.388,156.500 89.846,155.400 90.222 C 147.395 92.959,139.271 98.754,132.984 106.210 C 130.976 108.592,130.527 109.195,128.547 112.169 C 127.973 113.031,127.338 113.931,127.135 114.169 C 125.991 115.510,115.453 132.063,113.236 136.000 C 112.027 138.149,108.698 144.907,107.967 146.700 C 107.765 147.195,107.426 148.005,107.214 148.500 C 101.860 160.975,107.545 171.911,123.395 179.624 C 126.531 181.151,129.355 182.400,129.669 182.400 C 129.983 182.400,130.411 182.557,130.620 182.748 C 130.930 183.032,136.671 184.903,143.000 186.783 C 157.105 190.972,186.110 191.947,202.600 188.787 C 213.754 186.650,216.980 185.850,223.786 183.538 C 241.273 177.597,250.705 169.970,257.474 156.300 C 259.021 153.175,258.781 153.278,261.156 154.720 C 264.742 156.898,271.479 159.054,272.260 158.273 C 272.555 157.978,271.463 147.271,270.784 143.800 C 270.569 142.700,270.020 139.910,269.564 137.600 C 269.108 135.290,268.581 132.230,268.393 130.800 C 267.826 126.488,263.500 114.700,261.897 113.097 C 261.470 112.670,260.675 111.304,260.129 110.061 C 259.584 108.817,258.696 107.350,258.157 106.800 C 257.618 106.250,256.051 104.371,254.674 102.625 C 252.592 99.985,250.769 98.329,246.600 95.291 C 245.931 94.804,241.091 92.537,239.600 92.012 C 238.830 91.741,237.840 91.367,237.400 91.182 C 236.960 90.996,234.980 90.557,233.000 90.205 C 231.020 89.853,228.770 89.404,228.000 89.208 C 227.230 89.011,224.800 88.640,222.600 88.383 C 220.400 88.127,217.340 87.758,215.800 87.564 C 201.935 85.820,183.998 85.257,173.600 86.240 M175.100 243.357 C 173.156 244.833,177.458 250.102,182.869 252.872 C 190.249 256.650,206.073 256.286,212.827 252.184 C 216.052 250.224,220.000 245.767,220.000 244.084 C 220.000 243.273,217.880 242.715,217.484 243.421 C 212.381 252.539,186.539 253.559,178.157 244.974 C 176.990 243.778,175.982 242.806,175.917 242.813 C 175.853 242.820,175.485 243.065,175.100 243.357 M55.164 339.133 C 55.380 339.536,55.871 340.121,56.255 340.433 C 56.687 340.784,56.590 340.504,56.001 339.700 C 54.951 338.265,54.557 337.998,55.164 339.133 M59.618 343.822 C 59.902 344.164,60.509 344.631,60.967 344.860 C 61.523 345.138,61.413 344.931,60.638 344.238 C 59.342 343.081,58.829 342.871,59.618 343.822 " stroke="none" fill="#4c3c2c" fill-rule="evenodd"></path><path id="path6" d="M320.800 41.800 C 320.220 42.132,320.052 42.372,320.400 42.373 C 320.730 42.374,321.349 42.110,321.776 41.787 C 322.764 41.040,322.115 41.048,320.800 41.800 M313.600 43.618 C 313.162 43.915,313.324 43.952,314.200 43.756 C 315.671 43.427,315.990 43.198,314.967 43.206 C 314.545 43.209,313.930 43.395,313.600 43.618 M281.792 62.500 L 277.800 66.600 281.900 62.608 C 284.155 60.412,286.000 58.567,286.000 58.508 C 286.000 58.218,285.501 58.692,281.792 62.500 M273.764 71.691 C 272.126 73.917,270.735 76.130,271.308 75.600 C 271.789 75.154,275.952 69.200,275.782 69.200 C 275.681 69.200,274.773 70.321,273.764 71.691 M265.980 84.439 C 265.520 85.340,265.213 86.146,265.297 86.230 C 265.381 86.314,265.841 85.576,266.319 84.591 C 267.409 82.347,267.115 82.215,265.980 84.439 M184.900 84.694 C 185.945 84.776,187.655 84.776,188.700 84.694 C 189.745 84.612,188.890 84.544,186.800 84.544 C 184.710 84.544,183.855 84.612,184.900 84.694 M177.900 85.082 C 178.395 85.178,179.205 85.178,179.700 85.082 C 180.195 84.987,179.790 84.909,178.800 84.909 C 177.810 84.909,177.405 84.987,177.900 85.082 M194.100 85.087 C 194.705 85.178,195.695 85.178,196.300 85.087 C 196.905 84.995,196.410 84.920,195.200 84.920 C 193.990 84.920,193.495 84.995,194.100 85.087 M172.500 85.476 C 172.885 85.576,173.515 85.576,173.900 85.476 C 174.285 85.375,173.970 85.293,173.200 85.293 C 172.430 85.293,172.115 85.375,172.500 85.476 M201.900 85.482 C 202.395 85.578,203.205 85.578,203.700 85.482 C 204.195 85.387,203.790 85.309,202.800 85.309 C 201.810 85.309,201.405 85.387,201.900 85.482 M205.705 85.887 C 206.314 85.979,207.214 85.977,207.705 85.882 C 208.197 85.787,207.700 85.711,206.600 85.714 C 205.500 85.717,205.097 85.795,205.705 85.887 M210.305 86.283 C 210.802 86.379,211.522 86.375,211.905 86.275 C 212.287 86.175,211.880 86.096,211.000 86.101 C 210.120 86.105,209.807 86.187,210.305 86.283 M214.500 86.676 C 214.885 86.776,215.515 86.776,215.900 86.676 C 216.285 86.575,215.970 86.493,215.200 86.493 C 214.430 86.493,214.115 86.575,214.500 86.676 M233.800 89.600 C 234.240 89.789,234.960 89.938,235.400 89.932 C 236.043 89.923,236.004 89.857,235.200 89.600 C 233.832 89.162,232.781 89.162,233.800 89.600 M148.700 92.027 C 147.875 92.463,147.200 92.908,147.200 93.018 C 147.200 93.196,150.359 91.719,150.767 91.351 C 151.227 90.934,150.025 91.328,148.700 92.027 M244.800 93.350 C 244.800 93.444,245.441 93.899,246.224 94.361 C 247.007 94.823,247.536 95.020,247.399 94.798 C 247.131 94.364,244.800 93.066,244.800 93.350 M142.122 96.229 L 141.000 97.258 142.300 96.354 C 143.015 95.857,143.600 95.393,143.600 95.325 C 143.600 95.009,143.158 95.280,142.122 96.229 M253.000 99.600 C 254.306 100.920,255.465 102.000,255.575 102.000 C 255.685 102.000,254.706 100.920,253.400 99.600 C 252.094 98.280,250.935 97.200,250.825 97.200 C 250.715 97.200,251.694 98.280,253.000 99.600 M135.789 101.700 L 133.000 104.600 135.900 101.811 C 138.594 99.220,138.983 98.800,138.689 98.800 C 138.628 98.800,137.323 100.105,135.789 101.700 M259.429 101.029 C 259.281 101.615,259.238 102.172,259.332 102.266 C 259.427 102.360,259.624 101.958,259.771 101.371 C 259.919 100.785,259.962 100.228,259.868 100.134 C 259.773 100.040,259.576 100.442,259.429 101.029 M258.467 104.380 C 258.233 105.051,258.127 105.600,258.231 105.600 C 258.501 105.600,259.256 103.522,259.057 103.324 C 258.967 103.233,258.701 103.708,258.467 104.380 M376.800 108.005 C 376.800 108.854,365.340 116.800,364.116 116.800 C 363.832 116.800,363.600 116.959,363.600 117.153 C 363.600 117.348,363.285 117.608,362.900 117.732 C 362.515 117.856,360.940 118.692,359.400 119.589 C 356.955 121.014,343.930 127.543,339.400 129.615 C 334.193 131.997,332.290 132.800,331.852 132.800 C 331.581 132.800,331.189 132.955,330.980 133.144 C 330.771 133.334,328.530 134.250,326.000 135.181 C 323.470 136.111,321.130 137.000,320.800 137.155 C 320.470 137.310,319.120 137.769,317.800 138.175 C 316.480 138.580,315.040 139.057,314.600 139.234 C 314.160 139.412,312.720 139.864,311.400 140.240 C 310.080 140.616,308.229 141.166,307.286 141.462 C 303.322 142.707,303.208 142.525,304.242 136.600 C 305.453 129.655,305.835 126.800,305.551 126.800 C 305.393 126.800,304.215 127.069,302.932 127.397 C 300.724 127.962,298.849 128.290,289.400 129.761 C 285.573 130.357,278.754 131.052,272.455 131.488 L 269.510 131.692 269.742 132.946 C 269.870 133.636,270.263 135.640,270.616 137.400 C 271.665 142.637,271.938 144.388,272.392 148.800 C 272.630 151.110,272.999 153.768,273.212 154.706 C 273.788 157.239,273.701 159.186,273.000 159.455 C 271.983 159.846,272.328 160.528,274.509 162.440 C 281.525 168.592,282.846 185.548,276.982 194.188 C 276.442 194.984,276.000 195.856,276.000 196.125 C 276.000 197.384,284.654 206.571,290.027 211.016 C 296.036 215.988,306.487 221.328,314.330 223.433 C 342.384 230.966,371.055 220.051,389.012 195.000 C 391.704 191.244,397.200 182.083,397.200 181.351 C 397.200 181.268,397.571 180.829,398.023 180.377 C 398.832 179.568,398.874 175.549,398.106 172.600 C 397.991 172.160,397.812 171.035,397.708 170.100 C 397.604 169.165,397.358 168.400,397.160 168.400 C 396.962 168.400,396.792 167.365,396.783 166.100 C 396.773 164.835,396.582 162.990,396.358 162.000 C 396.134 161.010,395.849 159.660,395.725 159.000 C 395.601 158.340,395.362 157.620,395.194 157.400 C 395.026 157.180,394.757 155.837,394.596 154.416 C 394.434 152.995,394.144 151.510,393.951 151.116 C 393.758 150.722,393.420 150.042,393.200 149.605 C 392.980 149.168,392.800 148.289,392.800 147.651 C 392.800 146.439,391.628 142.346,391.181 142.000 C 391.039 141.890,390.803 140.900,390.656 139.800 C 390.509 138.700,390.211 137.740,389.995 137.667 C 389.778 137.593,389.600 137.098,389.600 136.567 C 389.600 136.035,389.420 135.600,389.200 135.600 C 388.980 135.600,388.800 135.091,388.800 134.468 C 388.800 133.845,388.365 132.476,387.833 131.425 C 387.300 130.373,386.750 129.038,386.610 128.457 C 386.234 126.898,385.448 125.200,385.102 125.200 C 384.936 125.200,384.800 124.749,384.800 124.197 C 384.800 123.645,384.331 122.250,383.757 121.097 C 383.184 119.944,382.464 118.490,382.157 117.868 C 381.851 117.245,381.600 116.480,381.600 116.168 C 381.600 115.855,381.420 115.600,381.200 115.600 C 380.980 115.600,380.800 115.374,380.800 115.098 C 380.800 114.387,377.719 108.121,377.217 107.810 C 376.987 107.669,376.800 107.756,376.800 108.005 M119.293 124.300 C 118.257 125.796,117.921 126.400,118.123 126.400 C 118.217 126.400,118.770 125.680,119.353 124.800 C 120.536 123.012,120.484 122.579,119.293 124.300 M114.200 132.400 C 113.859 133.060,113.669 133.600,113.779 133.600 C 113.889 133.600,114.259 133.060,114.600 132.400 C 114.941 131.740,115.131 131.200,115.021 131.200 C 114.911 131.200,114.541 131.740,114.200 132.400 M107.665 144.617 C 106.995 146.088,107.123 146.402,107.847 145.065 C 108.186 144.440,108.388 143.854,108.296 143.763 C 108.205 143.671,107.921 144.056,107.665 144.617 M104.509 156.000 C 104.509 156.990,104.587 157.395,104.682 156.900 C 104.778 156.405,104.778 155.595,104.682 155.100 C 104.587 154.605,104.509 155.010,104.509 156.000 M104.501 160.200 C 104.505 161.080,104.587 161.393,104.683 160.895 C 104.779 160.398,104.775 159.678,104.675 159.295 C 104.575 158.913,104.496 159.320,104.501 160.200 M111.613 173.100 C 111.619 173.265,112.114 173.746,112.713 174.168 L 113.800 174.936 112.830 173.868 C 111.811 172.746,111.592 172.607,111.613 173.100 M114.359 179.727 C 114.454 182.407,114.547 185.342,114.566 186.249 C 114.591 187.456,114.744 187.843,115.137 187.692 C 115.512 187.548,115.594 187.111,115.408 186.243 C 115.262 185.559,115.021 182.809,114.871 180.132 C 114.516 173.762,114.137 173.462,114.359 179.727 M313.270 190.900 C 320.091 198.761,343.847 198.900,350.548 191.118 C 352.717 188.599,356.678 188.894,355.716 191.503 C 350.706 205.084,322.171 207.853,311.127 195.829 C 307.943 192.362,307.513 190.349,309.748 189.376 C 311.442 188.639,311.227 188.546,313.270 190.900 M156.800 257.998 C 156.800 258.233,157.069 258.528,157.398 258.654 C 157.726 258.781,157.908 259.025,157.802 259.197 C 157.696 259.369,157.922 259.755,158.304 260.055 C 158.934 260.548,158.948 260.533,158.451 259.900 C 157.622 258.843,158.070 259.020,161.798 261.221 C 183.589 274.092,211.927 274.224,231.683 261.547 C 232.721 260.880,233.745 260.443,233.958 260.574 C 234.350 260.816,235.729 259.196,235.406 258.873 C 235.310 258.777,233.919 259.513,232.316 260.510 C 210.923 273.806,183.211 273.727,161.434 260.309 C 157.108 257.643,156.800 257.489,156.800 257.998 M16.222 278.222 C 15.718 278.991,15.646 279.406,15.963 279.723 C 16.203 279.963,16.400 280.484,16.400 280.880 C 16.400 281.276,16.580 281.600,16.800 281.600 C 17.020 281.600,17.200 281.877,17.200 282.216 C 17.200 282.555,17.564 283.545,18.008 284.416 C 18.453 285.287,18.724 286.000,18.612 286.000 C 18.500 286.000,18.678 286.315,19.007 286.700 C 19.337 287.085,19.623 287.580,19.643 287.800 C 19.663 288.020,19.879 288.560,20.124 289.000 C 20.369 289.440,20.527 289.948,20.475 290.130 C 20.423 290.311,20.547 290.356,20.751 290.230 C 21.132 289.995,22.068 292.146,21.767 292.566 C 21.675 292.695,21.719 292.711,21.863 292.603 C 22.008 292.495,22.640 293.423,23.267 294.666 C 23.894 295.909,24.592 297.149,24.819 297.422 C 25.045 297.695,25.300 298.282,25.386 298.726 C 25.471 299.171,26.185 300.469,26.971 301.612 C 27.757 302.755,28.400 303.857,28.400 304.062 C 28.400 304.267,28.850 304.920,29.400 305.513 C 29.950 306.107,30.400 306.819,30.400 307.096 C 30.400 307.373,30.580 307.600,30.800 307.600 C 31.020 307.600,31.200 307.870,31.200 308.200 C 31.200 308.530,31.339 308.800,31.508 308.800 C 31.678 308.800,32.263 309.655,32.808 310.700 C 33.354 311.745,33.935 312.660,34.100 312.733 C 34.265 312.807,34.400 313.082,34.400 313.345 C 34.400 313.608,34.760 314.083,35.200 314.400 C 35.640 314.717,36.000 315.124,36.000 315.305 C 36.000 315.486,36.373 316.031,36.829 316.517 C 37.285 317.003,38.336 318.434,39.165 319.698 C 39.993 320.962,40.766 321.900,40.883 321.784 C 41.000 321.667,41.394 322.200,41.758 322.969 C 42.953 325.485,43.110 324.886,43.353 316.897 C 43.643 307.328,44.379 296.747,44.792 296.200 C 44.958 295.980,45.214 294.810,45.362 293.600 C 45.628 291.418,46.142 289.340,46.795 287.800 C 46.982 287.360,47.233 286.428,47.352 285.729 C 47.471 285.031,47.950 283.591,48.417 282.529 C 48.883 281.468,49.517 280.015,49.826 279.300 L 50.387 278.000 34.074 278.000 C 23.200 278.000,17.620 277.860,17.339 277.579 C 17.045 277.285,16.709 277.479,16.222 278.222 M269.800 286.439 C 259.766 288.685,252.246 298.537,251.511 310.400 L 251.400 312.200 249.800 312.105 C 247.816 311.986,240.897 312.759,240.035 313.196 C 239.686 313.373,238.590 313.845,237.600 314.244 C 232.146 316.444,226.082 322.574,224.187 327.800 C 223.789 328.900,223.328 329.981,223.164 330.201 C 222.536 331.047,222.000 338.711,222.000 346.847 L 222.000 355.326 247.589 355.093 C 261.664 354.965,273.360 354.748,273.582 354.611 C 274.050 354.322,274.164 313.050,273.742 296.500 L 273.474 286.000 272.437 286.040 C 271.867 286.062,270.680 286.242,269.800 286.439 M205.775 295.300 L 204.600 296.600 205.900 295.425 C 206.615 294.779,207.200 294.194,207.200 294.125 C 207.200 293.816,206.870 294.088,205.775 295.300 M196.100 299.476 C 196.485 299.576,197.115 299.576,197.500 299.476 C 197.885 299.375,197.570 299.293,196.800 299.293 C 196.030 299.293,195.715 299.375,196.100 299.476 M124.900 301.498 C 126.825 301.571,129.975 301.571,131.900 301.498 C 133.825 301.425,132.250 301.365,128.400 301.365 C 124.550 301.365,122.975 301.425,124.900 301.498 M149.390 364.600 C 149.390 380.660,149.439 387.172,149.500 379.071 C 149.560 370.969,149.560 357.829,149.500 349.871 C 149.439 341.912,149.390 348.540,149.390 364.600 M160.453 395.967 C 160.076 396.200,160.185 396.355,160.849 396.529 C 161.964 396.820,162.195 396.660,161.496 396.080 C 161.208 395.841,160.740 395.790,160.453 395.967 " stroke="none" fill="#eacab2" fill-rule="evenodd"></path><path id="path7" d="M397.910 180.698 C 397.570 181.084,396.799 182.383,396.196 183.584 C 371.653 232.541,312.297 240.496,278.187 199.400 C 275.347 195.978,275.610 196.080,273.442 197.571 C 271.837 198.675,271.611 199.032,271.199 201.100 C 269.672 208.766,267.746 214.957,264.601 222.307 C 263.447 225.005,262.742 227.014,263.036 226.771 C 263.329 226.527,263.691 225.939,263.839 225.464 C 263.988 224.989,264.605 223.514,265.211 222.186 C 267.555 217.048,270.953 205.869,271.799 200.517 C 271.971 199.427,272.311 198.755,272.762 198.612 C 273.145 198.490,273.877 198.001,274.389 197.525 L 275.318 196.659 276.092 197.629 C 302.840 231.201,345.429 236.178,376.812 209.400 C 383.814 203.426,393.358 191.171,396.447 184.187 C 396.848 183.280,397.562 182.047,398.034 181.448 C 398.989 180.234,398.883 179.593,397.910 180.698 M111.800 188.589 C 71.109 199.910,38.652 223.317,24.877 251.275 C 21.117 258.907,16.043 275.651,17.014 277.222 C 17.154 277.450,23.916 277.600,33.990 277.600 C 47.010 277.600,50.778 277.711,50.935 278.100 C 51.056 278.399,51.150 278.318,51.168 277.900 C 51.198 277.244,50.145 277.200,34.400 277.200 L 17.600 277.200 17.600 276.064 C 17.600 271.146,21.581 258.727,25.889 250.207 C 28.215 245.605,33.709 236.974,35.185 235.600 C 35.303 235.490,36.112 234.500,36.982 233.400 C 43.736 224.861,56.408 214.501,69.714 206.641 C 73.405 204.460,82.847 199.794,87.600 197.802 C 90.570 196.557,93.360 195.381,93.800 195.188 C 96.830 193.857,108.603 189.897,113.289 188.632 L 115.178 188.123 115.644 189.561 C 116.329 191.681,117.818 194.523,118.944 195.861 C 119.488 196.507,120.059 197.748,120.213 198.618 C 121.437 205.530,125.506 217.907,128.473 223.739 C 129.491 225.741,129.821 225.417,128.850 223.369 C 126.739 218.920,125.662 216.218,123.998 211.200 C 123.041 208.313,121.089 200.672,120.557 197.731 C 120.471 197.253,119.968 196.348,119.439 195.719 C 118.288 194.352,116.000 189.947,116.000 189.099 C 116.000 187.796,115.061 187.682,111.800 188.589 M155.719 257.527 C 156.045 258.036,158.560 261.186,161.306 264.527 C 166.565 270.923,180.633 288.138,183.103 291.200 C 188.104 297.399,191.932 299.761,197.000 299.774 C 202.690 299.789,204.016 298.714,215.112 285.092 C 219.230 280.036,224.475 273.627,226.768 270.850 C 233.763 262.374,236.916 258.382,236.747 258.214 C 236.659 258.125,233.259 262.129,229.193 267.110 C 203.493 298.596,205.353 296.486,201.600 298.405 C 195.272 301.640,190.215 299.046,181.010 287.841 C 173.646 278.877,160.802 263.171,159.200 261.171 C 157.317 258.820,154.979 256.372,155.719 257.527 M272.802 285.426 L 274.004 285.651 273.902 320.326 L 273.800 355.000 249.200 355.205 L 224.600 355.409 249.276 355.505 C 268.663 355.580,274.022 355.493,274.276 355.100 C 274.708 354.433,274.886 307.157,274.503 295.000 L 274.200 285.400 272.900 285.300 C 271.614 285.201,271.613 285.202,272.802 285.426 M267.800 286.400 C 267.296 286.617,267.222 286.744,267.600 286.744 C 267.930 286.744,268.560 286.589,269.000 286.400 C 269.504 286.183,269.578 286.056,269.200 286.056 C 268.870 286.056,268.240 286.211,267.800 286.400 M260.400 290.558 C 259.190 291.522,257.585 293.096,256.833 294.055 C 255.057 296.321,254.664 297.036,256.192 295.218 C 257.845 293.253,259.519 291.610,261.400 290.106 C 262.280 289.402,262.910 288.822,262.800 288.816 C 262.690 288.811,261.610 289.595,260.400 290.558 M119.000 301.171 C 103.570 303.648,92.647 313.113,89.193 327.000 C 86.394 338.255,89.172 345.305,96.643 345.904 C 103.005 346.415,106.276 343.020,107.147 335.000 C 108.372 323.730,113.870 319.838,128.600 319.813 C 139.817 319.794,143.698 321.658,146.801 328.558 C 148.741 332.873,148.817 334.266,148.792 365.041 C 148.770 392.561,148.874 395.310,149.893 394.219 C 150.062 394.038,149.975 393.810,149.700 393.712 C 149.306 393.571,149.199 387.314,149.194 364.267 C 149.187 329.654,149.143 329.283,144.365 323.855 C 138.367 317.041,117.973 317.439,110.832 324.509 C 108.075 327.238,107.190 329.648,106.426 336.502 C 105.464 345.126,97.528 348.540,91.261 343.026 C 88.748 340.815,87.968 334.478,89.425 328.125 C 93.970 308.319,111.648 298.510,137.210 301.611 C 152.582 303.476,163.506 314.216,166.595 330.500 C 167.103 333.176,167.200 338.756,167.200 365.244 L 167.200 396.800 166.200 396.800 C 165.650 396.800,165.200 396.980,165.200 397.200 C 165.200 397.420,165.740 397.600,166.400 397.600 L 167.600 397.600 167.600 365.272 C 167.600 334.807,167.555 332.738,166.826 329.372 C 163.695 314.916,155.207 305.601,141.800 301.905 C 138.698 301.050,122.921 300.542,119.000 301.171 M44.520 303.200 C 44.520 304.410,44.595 304.905,44.687 304.300 C 44.778 303.695,44.778 302.705,44.687 302.100 C 44.595 301.495,44.520 301.990,44.520 303.200 M252.229 302.229 C 252.081 302.815,252.038 303.372,252.132 303.466 C 252.227 303.560,252.424 303.158,252.571 302.571 C 252.719 301.985,252.762 301.428,252.668 301.334 C 252.573 301.240,252.376 301.642,252.229 302.229 M251.320 307.600 C 251.320 308.810,251.395 309.305,251.487 308.700 C 251.578 308.095,251.578 307.105,251.487 306.500 C 251.395 305.895,251.320 306.390,251.320 307.600 M44.128 311.600 C 44.128 313.030,44.201 313.615,44.289 312.900 C 44.378 312.185,44.378 311.015,44.289 310.300 C 44.201 309.585,44.128 310.170,44.128 311.600 M251.200 310.546 C 251.200 310.920,250.795 311.389,250.300 311.588 L 249.400 311.949 250.273 311.975 C 251.118 311.999,251.967 310.634,251.437 310.103 C 251.306 309.973,251.200 310.172,251.200 310.546 M240.800 312.400 C 239.996 312.657,239.957 312.723,240.600 312.732 C 241.040 312.738,241.760 312.589,242.200 312.400 C 243.219 311.962,242.168 311.962,240.800 312.400 M234.900 314.846 C 233.095 316.002,233.263 316.268,235.100 315.163 C 236.960 314.045,237.018 313.998,236.567 314.007 C 236.365 314.010,235.615 314.388,234.900 314.846 M229.188 319.500 L 226.600 322.200 229.300 319.612 C 230.785 318.188,232.000 316.973,232.000 316.912 C 232.000 316.617,231.593 316.992,229.188 319.500 M43.720 321.200 C 43.720 322.410,43.795 322.905,43.887 322.300 C 43.978 321.695,43.978 320.705,43.887 320.100 C 43.795 319.495,43.720 319.990,43.720 321.200 M222.229 331.429 C 222.081 332.015,222.038 332.572,222.132 332.666 C 222.227 332.760,222.424 332.358,222.571 331.771 C 222.719 331.185,222.762 330.628,222.668 330.534 C 222.573 330.440,222.376 330.842,222.229 331.429 M221.701 335.400 C 221.705 336.280,221.787 336.593,221.883 336.095 C 221.979 335.598,221.975 334.878,221.875 334.495 C 221.775 334.113,221.696 334.520,221.701 335.400 M221.363 348.400 C 221.363 352.030,221.423 353.515,221.498 351.700 C 221.572 349.885,221.572 346.915,221.498 345.100 C 221.423 343.285,221.363 344.770,221.363 348.400 M155.200 395.200 C 155.200 395.420,155.470 395.600,155.800 395.600 C 156.130 395.600,156.400 395.420,156.400 395.200 C 156.400 394.980,156.130 394.800,155.800 394.800 C 155.470 394.800,155.200 394.980,155.200 395.200 M157.600 396.000 C 157.600 396.220,157.870 396.400,158.200 396.400 C 158.530 396.400,158.800 396.220,158.800 396.000 C 158.800 395.780,158.530 395.600,158.200 395.600 C 157.870 395.600,157.600 395.780,157.600 396.000 " stroke="none" fill="#78abab" fill-rule="evenodd"></path><path id="path8" d="M321.380 41.966 C 321.171 42.168,320.640 42.416,320.200 42.518 C 319.760 42.620,320.077 42.652,320.904 42.589 C 322.156 42.494,322.645 42.704,323.812 43.837 C 324.583 44.587,325.360 45.200,325.538 45.200 C 325.715 45.200,326.283 45.650,326.800 46.200 C 327.317 46.750,328.023 47.194,328.370 47.187 C 329.045 47.174,324.901 43.235,324.188 43.213 C 323.962 43.206,323.517 42.840,323.200 42.400 C 322.575 41.533,321.978 41.390,321.380 41.966 M314.282 43.688 C 312.568 44.134,311.248 44.581,311.350 44.683 C 311.532 44.866,318.444 43.256,318.767 42.955 C 319.137 42.610,317.229 42.922,314.282 43.688 M308.053 45.621 C 305.205 46.632,297.426 50.359,297.665 50.598 C 297.768 50.701,299.021 50.166,300.449 49.407 C 301.876 48.649,304.745 47.374,306.822 46.574 C 308.900 45.774,310.675 45.047,310.767 44.960 C 311.096 44.644,310.163 44.872,308.053 45.621 M330.406 48.671 C 330.416 49.219,330.891 49.709,333.600 51.968 C 335.030 53.161,336.423 54.408,336.696 54.739 C 336.969 55.070,337.290 55.244,337.410 55.124 C 337.714 54.819,333.981 51.200,333.361 51.200 C 333.082 51.200,332.740 50.840,332.600 50.400 C 332.460 49.960,332.191 49.600,332.002 49.600 C 331.812 49.600,331.374 49.317,331.029 48.971 C 330.683 48.626,330.403 48.491,330.406 48.671 M294.404 52.455 C 285.097 58.358,274.019 70.093,269.249 79.100 C 268.301 80.889,269.174 79.947,270.546 77.700 C 276.282 68.306,285.247 58.900,293.800 53.303 C 295.340 52.295,296.771 51.319,296.980 51.135 C 297.800 50.412,296.885 50.880,294.404 52.455 M338.800 56.581 C 338.800 56.788,341.651 59.600,341.861 59.600 C 342.209 59.600,341.900 59.166,340.607 57.834 C 339.308 56.496,338.800 56.144,338.800 56.581 M345.544 63.500 C 346.002 63.885,346.742 64.633,347.188 65.161 C 347.635 65.690,348.000 65.916,348.000 65.665 C 348.000 65.120,345.649 62.800,345.096 62.800 C 344.885 62.800,345.086 63.115,345.544 63.500 M352.800 71.916 C 352.800 72.077,353.153 72.428,353.585 72.698 C 354.232 73.102,354.332 73.089,354.154 72.625 C 353.922 72.020,352.800 71.433,352.800 71.916 M266.261 84.700 C 263.989 89.253,261.841 94.374,262.097 94.630 C 262.181 94.714,262.850 93.302,263.584 91.491 C 264.318 89.681,265.793 86.445,266.863 84.300 C 267.932 82.155,268.717 80.400,268.607 80.400 C 268.497 80.400,267.441 82.335,266.261 84.700 M183.500 85.098 C 185.315 85.172,188.285 85.172,190.100 85.098 C 191.915 85.023,190.430 84.963,186.800 84.963 C 183.170 84.963,181.685 85.023,183.500 85.098 M175.500 85.489 C 176.215 85.578,177.385 85.578,178.100 85.489 C 178.815 85.401,178.230 85.328,176.800 85.328 C 175.370 85.328,174.785 85.401,175.500 85.489 M196.300 85.493 C 197.235 85.577,198.765 85.577,199.700 85.493 C 200.635 85.409,199.870 85.340,198.000 85.340 C 196.130 85.340,195.365 85.409,196.300 85.493 M171.700 85.876 C 172.085 85.976,172.715 85.976,173.100 85.876 C 173.485 85.775,173.170 85.693,172.400 85.693 C 171.630 85.693,171.315 85.775,171.700 85.876 M202.705 85.883 C 203.202 85.979,203.922 85.975,204.305 85.875 C 204.687 85.775,204.280 85.696,203.400 85.701 C 202.520 85.705,202.207 85.787,202.705 85.883 M207.505 86.283 C 208.002 86.379,208.722 86.375,209.105 86.275 C 209.487 86.175,209.080 86.096,208.200 86.101 C 207.320 86.105,207.007 86.187,207.505 86.283 M166.100 86.676 C 166.485 86.776,167.115 86.776,167.500 86.676 C 167.885 86.575,167.570 86.493,166.800 86.493 C 166.030 86.493,165.715 86.575,166.100 86.676 M210.900 86.687 C 211.505 86.778,212.495 86.778,213.100 86.687 C 213.705 86.595,213.210 86.520,212.000 86.520 C 210.790 86.520,210.295 86.595,210.900 86.687 M215.300 87.076 C 215.685 87.176,216.315 87.176,216.700 87.076 C 217.085 86.975,216.770 86.893,216.000 86.893 C 215.230 86.893,214.915 86.975,215.300 87.076 M161.400 87.600 C 160.381 88.038,161.432 88.038,162.800 87.600 C 163.604 87.343,163.643 87.277,163.000 87.268 C 162.560 87.262,161.840 87.411,161.400 87.600 M218.300 87.482 C 218.795 87.578,219.605 87.578,220.100 87.482 C 220.595 87.387,220.190 87.309,219.200 87.309 C 218.210 87.309,217.805 87.387,218.300 87.482 M158.056 88.459 C 157.317 88.672,156.787 88.920,156.879 89.012 C 157.081 89.214,160.000 88.437,160.000 88.181 C 160.000 87.946,159.682 87.991,158.056 88.459 M231.233 89.347 C 231.325 89.428,232.120 89.604,233.000 89.738 C 234.115 89.907,234.358 89.871,233.800 89.619 C 233.032 89.271,230.890 89.044,231.233 89.347 M237.987 91.013 C 239.629 91.534,241.042 91.892,241.125 91.808 C 241.312 91.621,236.096 89.987,235.458 90.033 C 235.206 90.050,236.344 90.491,237.987 91.013 M241.633 92.151 C 242.042 92.521,245.200 93.995,245.200 93.816 C 245.200 93.589,242.181 92.000,241.749 92.000 C 241.594 92.000,241.542 92.068,241.633 92.151 M144.500 94.846 C 143.137 95.719,142.695 96.306,143.900 95.643 C 144.818 95.139,146.256 94.027,146.000 94.019 C 145.890 94.016,145.215 94.388,144.500 94.846 M248.800 96.259 C 251.767 98.639,254.568 101.499,256.283 103.900 C 257.266 105.275,258.211 106.400,258.382 106.400 C 258.743 106.400,260.154 101.621,259.876 101.343 C 259.774 101.240,259.472 102.067,259.205 103.180 C 258.546 105.924,258.287 105.954,256.468 103.492 C 254.800 101.234,249.597 96.217,248.221 95.539 C 247.769 95.317,248.030 95.641,248.800 96.259 M260.800 97.800 C 260.315 99.258,260.006 100.540,260.115 100.648 C 260.223 100.756,260.691 99.635,261.156 98.156 C 261.620 96.676,261.928 95.395,261.841 95.308 C 261.754 95.220,261.285 96.342,260.800 97.800 M141.000 97.444 L 139.400 98.876 141.100 97.604 C 142.563 96.510,143.091 95.983,142.700 96.006 C 142.645 96.009,141.880 96.656,141.000 97.444 M135.755 102.100 C 134.020 103.915,131.997 106.210,131.261 107.200 C 129.958 108.950,129.969 108.945,131.652 107.000 C 132.604 105.900,134.723 103.605,136.361 101.900 C 137.999 100.195,139.242 98.800,139.124 98.800 C 139.007 98.800,137.490 100.285,135.755 102.100 M370.777 111.933 C 353.739 123.249,326.680 135.607,308.105 140.555 C 303.610 141.753,303.882 142.334,305.233 134.400 C 305.852 130.770,306.367 127.485,306.379 127.100 C 306.406 126.186,305.511 126.201,300.782 127.195 C 294.667 128.481,284.292 129.907,277.200 130.438 C 269.531 131.011,268.629 131.233,269.015 132.448 C 269.163 132.915,269.608 134.850,270.004 136.748 C 270.399 138.647,270.738 139.750,270.755 139.200 C 270.773 138.650,270.527 137.120,270.208 135.800 C 269.170 131.501,268.828 131.819,275.100 131.243 C 285.846 130.255,294.317 129.096,300.800 127.726 C 306.301 126.563,306.145 126.565,305.879 127.646 C 305.214 130.347,303.618 141.306,303.838 141.661 C 304.286 142.386,307.021 141.675,318.200 137.923 C 321.500 136.816,324.740 135.683,325.400 135.406 C 326.060 135.128,328.940 133.947,331.800 132.780 C 342.133 128.564,352.643 123.417,362.800 117.599 C 364.890 116.402,366.690 115.327,366.800 115.211 C 367.081 114.915,368.484 114.047,369.200 113.727 C 369.530 113.579,369.890 113.355,370.000 113.229 C 370.110 113.103,371.685 112.013,373.500 110.807 C 375.315 109.601,376.800 108.476,376.800 108.307 C 376.800 107.900,377.334 107.578,370.777 111.933 M127.222 112.800 C 125.866 114.780,124.850 116.400,124.966 116.400 C 125.081 116.400,126.126 115.011,127.288 113.314 C 129.883 109.521,130.085 109.200,129.864 109.200 C 129.767 109.200,128.578 110.820,127.222 112.800 M123.846 117.800 C 123.491 118.350,122.909 119.295,122.553 119.900 L 121.905 121.000 122.710 120.026 C 123.660 118.876,124.921 116.800,124.669 116.800 C 124.571 116.800,124.201 117.250,123.846 117.800 M118.153 126.500 C 116.776 128.836,116.686 129.035,117.387 128.200 C 118.200 127.232,118.900 126.000,118.638 126.000 C 118.533 126.000,118.315 126.225,118.153 126.500 M115.908 130.100 C 115.033 131.449,114.248 133.056,114.687 132.600 C 115.248 132.017,116.898 129.200,116.679 129.200 C 116.576 129.200,116.229 129.605,115.908 130.100 M109.580 141.240 C 108.902 142.583,108.414 143.747,108.494 143.828 C 108.575 143.908,109.215 142.810,109.917 141.387 C 110.618 139.964,111.107 138.800,111.002 138.800 C 110.897 138.800,110.257 139.898,109.580 141.240 M270.800 140.784 C 270.800 141.068,271.064 142.943,271.387 144.950 C 271.709 146.958,272.137 149.770,272.336 151.200 C 272.568 152.865,272.713 153.297,272.741 152.400 C 272.794 150.641,271.413 140.880,271.061 140.528 C 270.917 140.384,270.800 140.499,270.800 140.784 M106.446 148.439 C 106.201 149.143,106.013 149.918,106.028 150.160 C 106.044 150.402,106.314 149.896,106.630 149.035 C 106.945 148.174,107.133 147.400,107.048 147.315 C 106.962 147.229,106.692 147.735,106.446 148.439 M259.694 154.976 C 260.296 155.290,261.191 155.829,261.683 156.173 C 262.175 156.518,262.763 156.797,262.989 156.792 C 263.215 156.788,262.546 156.248,261.501 155.592 C 260.457 154.937,259.377 154.401,259.101 154.402 C 258.826 154.404,259.092 154.662,259.694 154.976 M272.760 156.800 L 272.600 159.000 271.200 158.921 L 269.800 158.842 271.122 159.285 C 273.133 159.959,273.824 159.090,273.310 156.536 L 272.919 154.600 272.760 156.800 M257.681 157.009 C 257.202 157.994,256.894 158.800,256.997 158.800 C 257.268 158.800,258.884 155.551,258.703 155.370 C 258.619 155.286,258.159 156.024,257.681 157.009 M266.600 158.214 C 267.260 158.517,268.070 158.758,268.400 158.752 C 268.730 158.745,268.370 158.497,267.600 158.200 C 265.774 157.497,265.055 157.507,266.600 158.214 M254.711 162.256 C 253.672 163.875,252.905 165.200,253.008 165.200 C 253.294 165.200,256.945 159.609,256.762 159.451 C 256.673 159.374,255.750 160.636,254.711 162.256 M251.600 166.600 C 251.083 167.150,250.827 167.594,251.030 167.587 C 251.372 167.576,253.021 165.600,252.688 165.600 C 252.606 165.600,252.117 166.050,251.600 166.600 M106.415 166.200 C 106.417 166.420,106.786 167.050,107.236 167.600 C 107.779 168.264,107.915 168.331,107.640 167.800 C 106.966 166.495,106.412 165.772,106.415 166.200 M247.000 171.501 C 245.020 173.406,244.120 174.398,245.000 173.706 C 246.936 172.181,248.216 170.997,249.775 169.288 C 251.826 167.039,250.716 167.924,247.000 171.501 M109.151 170.338 C 109.821 171.185,110.687 172.130,111.074 172.438 C 111.461 172.747,110.990 172.055,110.026 170.900 C 108.006 168.478,107.338 168.049,109.151 170.338 M113.400 174.320 C 114.280 175.253,115.360 176.216,115.800 176.459 C 116.635 176.920,115.075 175.338,112.993 173.611 C 112.205 172.958,112.343 173.198,113.400 174.320 M241.897 175.566 C 240.253 176.619,240.025 176.991,241.475 176.254 C 242.176 175.897,242.861 175.424,242.998 175.203 C 243.319 174.684,243.223 174.715,241.897 175.566 M116.800 176.955 C 116.800 177.231,119.621 178.912,119.794 178.739 C 119.878 178.655,119.238 178.180,118.373 177.682 C 117.508 177.184,116.800 176.857,116.800 176.955 M237.062 178.447 C 236.216 178.893,235.609 179.342,235.712 179.445 C 235.902 179.636,238.800 178.055,238.800 177.760 C 238.800 177.534,238.771 177.545,237.062 178.447 M120.400 178.997 C 120.400 179.268,123.649 180.884,123.830 180.703 C 123.914 180.619,123.176 180.159,122.191 179.681 C 121.206 179.202,120.400 178.894,120.400 178.997 M233.600 180.200 C 233.050 180.514,232.780 180.772,233.000 180.772 C 233.220 180.772,233.850 180.514,234.400 180.200 C 234.950 179.886,235.220 179.628,235.000 179.628 C 234.780 179.628,234.150 179.886,233.600 180.200 M126.800 182.200 C 127.350 182.514,127.980 182.772,128.200 182.772 C 128.420 182.772,128.150 182.514,127.600 182.200 C 127.050 181.886,126.420 181.628,126.200 181.628 C 125.980 181.628,126.250 181.886,126.800 182.200 M229.000 182.214 C 228.000 182.696,227.966 182.751,228.800 182.548 C 229.933 182.271,231.207 181.621,230.600 181.630 C 230.380 181.633,229.660 181.896,229.000 182.214 M224.600 183.822 C 223.280 184.334,222.393 184.763,222.629 184.776 C 223.261 184.811,226.938 183.550,227.380 183.147 C 227.957 182.620,227.277 182.785,224.600 183.822 M131.200 183.933 C 131.530 184.136,132.250 184.424,132.800 184.571 C 133.495 184.757,133.617 184.725,133.200 184.467 C 132.870 184.264,132.150 183.976,131.600 183.829 C 130.905 183.643,130.783 183.675,131.200 183.933 M137.000 186.000 C 137.440 186.189,138.070 186.344,138.400 186.344 C 138.778 186.344,138.704 186.217,138.200 186.000 C 137.760 185.811,137.130 185.656,136.800 185.656 C 136.422 185.656,136.496 185.783,137.000 186.000 M217.800 186.000 L 217.000 186.344 217.800 186.366 C 218.240 186.378,218.870 186.213,219.200 186.000 C 219.995 185.486,218.996 185.486,217.800 186.000 M141.200 187.200 C 141.530 187.413,142.160 187.578,142.600 187.566 L 143.400 187.544 142.600 187.200 C 141.404 186.686,140.405 186.686,141.200 187.200 M213.200 187.200 L 212.200 187.520 213.276 187.560 C 213.868 187.582,214.464 187.420,214.600 187.200 C 214.881 186.745,214.620 186.745,213.200 187.200 M115.496 188.100 C 115.712 188.375,116.013 189.116,116.164 189.747 C 116.315 190.378,116.538 190.795,116.659 190.674 C 117.002 190.331,115.990 187.600,115.520 187.600 C 115.242 187.600,115.234 187.768,115.496 188.100 M144.200 187.955 C 144.640 188.144,145.810 188.407,146.800 188.541 C 147.984 188.700,148.258 188.671,147.600 188.454 C 146.107 187.962,143.230 187.540,144.200 187.955 M209.600 188.000 L 208.600 188.320 209.600 188.332 C 210.150 188.338,210.960 188.189,211.400 188.000 L 212.200 187.656 211.400 187.668 C 210.960 187.674,210.150 187.824,209.600 188.000 M150.000 189.200 C 150.330 189.413,151.050 189.573,151.600 189.554 L 152.600 189.520 151.600 189.200 C 150.058 188.706,149.236 188.706,150.000 189.200 M203.400 189.200 L 202.200 189.505 203.400 189.547 C 204.060 189.569,204.870 189.413,205.200 189.200 C 205.943 188.720,205.287 188.720,203.400 189.200 M309.759 189.455 C 307.598 190.576,308.182 192.670,311.682 196.343 C 320.265 205.353,342.152 205.792,351.401 197.140 C 355.411 193.388,356.529 190.714,354.526 189.660 C 353.039 188.877,352.384 189.131,350.504 191.222 C 343.457 199.060,319.607 198.833,313.206 190.867 C 311.604 188.874,311.199 188.708,309.759 189.455 M154.340 189.978 C 155.077 190.164,156.877 190.414,158.340 190.535 C 160.303 190.697,160.581 190.669,159.400 190.426 C 157.039 189.940,152.645 189.551,154.340 189.978 M312.889 191.406 C 320.039 199.529,343.701 199.634,350.946 191.575 C 353.928 188.259,356.395 189.560,354.071 193.222 C 346.661 204.897,321.358 206.396,311.860 195.721 C 308.953 192.453,308.250 190.595,309.700 190.012 C 311.105 189.448,311.203 189.491,312.889 191.406 M197.100 190.282 C 197.595 190.378,198.405 190.378,198.900 190.282 C 199.395 190.187,198.990 190.109,198.000 190.109 C 197.010 190.109,196.605 190.187,197.100 190.282 M194.100 190.676 C 194.485 190.776,195.115 190.776,195.500 190.676 C 195.885 190.575,195.570 190.493,194.800 190.493 C 194.030 190.493,193.715 190.575,194.100 190.676 M164.200 191.205 C 165.397 191.505,173.083 191.730,172.767 191.455 C 172.675 191.376,170.440 191.219,167.800 191.108 C 165.160 190.996,163.540 191.039,164.200 191.205 M184.200 191.200 L 180.200 191.445 184.400 191.499 C 186.710 191.529,189.320 191.405,190.200 191.223 L 191.800 190.892 190.000 190.923 C 189.010 190.941,186.400 191.065,184.200 191.200 M118.211 193.800 C 119.153 195.614,120.800 197.785,120.800 197.212 C 120.800 196.933,120.305 196.125,119.700 195.415 C 119.095 194.704,118.372 193.781,118.094 193.362 C 117.816 192.943,117.869 193.140,118.211 193.800 M274.412 196.384 C 273.459 196.987,274.109 197.114,275.200 196.539 C 275.751 196.248,275.931 196.012,275.600 196.012 C 275.270 196.012,274.735 196.180,274.412 196.384 M272.300 197.829 C 271.586 198.216,271.211 198.737,271.232 199.313 C 271.252 199.884,271.337 199.986,271.471 199.600 C 271.586 199.270,272.157 198.596,272.740 198.102 C 273.966 197.064,273.847 196.990,272.300 197.829 M120.828 199.676 C 120.896 200.944,121.542 201.854,121.572 200.724 C 121.587 200.132,121.420 199.536,121.200 199.400 C 120.980 199.264,120.813 199.388,120.828 199.676 M270.636 201.700 C 270.043 203.827,269.157 208.490,269.315 208.648 C 269.422 208.755,269.813 207.439,270.183 205.722 C 270.553 204.005,270.945 202.285,271.055 201.900 C 271.164 201.515,271.146 201.200,271.014 201.200 C 270.883 201.200,270.712 201.425,270.636 201.700 M121.656 202.600 C 121.659 203.040,121.907 204.120,122.207 205.000 L 122.752 206.600 122.519 205.000 C 122.391 204.120,122.143 203.040,121.968 202.600 L 121.651 201.800 121.656 202.600 M280.400 202.125 C 280.400 202.194,280.985 202.779,281.700 203.425 L 283.000 204.600 281.825 203.300 C 280.730 202.088,280.400 201.816,280.400 202.125 M380.189 205.300 L 377.400 208.200 380.300 205.411 C 381.895 203.877,383.200 202.572,383.200 202.511 C 383.200 202.217,382.780 202.606,380.189 205.300 M122.806 207.676 C 122.818 208.681,123.587 209.508,123.594 208.524 C 123.597 208.042,123.420 207.536,123.200 207.400 C 122.980 207.264,122.803 207.388,122.806 207.676 M123.630 210.000 C 123.633 210.330,123.891 211.140,124.202 211.800 L 124.767 213.000 124.530 211.800 C 124.232 210.298,123.621 209.075,123.630 210.000 M268.640 210.043 C 267.421 213.853,267.148 214.881,267.313 215.046 C 267.420 215.153,267.879 214.022,268.333 212.533 C 268.788 211.044,269.083 209.750,268.989 209.656 C 268.896 209.562,268.739 209.736,268.640 210.043 M124.800 213.732 C 124.800 213.805,125.258 214.930,125.818 216.232 C 126.378 217.534,126.744 218.139,126.630 217.577 C 126.266 215.773,124.800 212.694,124.800 213.732 M266.570 216.243 C 266.434 216.659,266.062 217.697,265.744 218.550 C 265.426 219.402,265.238 220.171,265.325 220.258 C 265.412 220.345,265.873 219.396,266.350 218.150 C 266.827 216.904,267.128 215.794,267.018 215.685 C 266.908 215.575,266.707 215.826,266.570 216.243 M127.614 220.620 C 127.622 220.829,127.899 221.450,128.231 222.000 L 128.833 223.000 128.572 222.000 C 128.299 220.957,127.589 219.933,127.614 220.620 M264.150 222.407 C 262.945 225.421,259.244 232.377,257.187 235.497 C 256.089 237.162,255.275 238.608,255.378 238.711 C 255.481 238.814,256.480 237.481,257.598 235.749 C 259.972 232.072,265.415 221.282,265.070 220.937 C 264.940 220.807,264.526 221.468,264.150 222.407 M128.800 223.325 C 128.800 223.777,130.495 226.838,130.656 226.677 C 130.871 226.462,129.310 223.200,128.992 223.200 C 128.886 223.200,128.800 223.256,128.800 223.325 M327.705 225.887 C 328.314 225.979,329.214 225.977,329.705 225.882 C 330.197 225.787,329.700 225.711,328.600 225.714 C 327.500 225.717,327.097 225.795,327.705 225.887 M334.505 225.887 C 335.114 225.979,336.014 225.977,336.505 225.882 C 336.997 225.787,336.500 225.711,335.400 225.714 C 334.300 225.717,333.897 225.795,334.505 225.887 M130.800 227.377 C 130.800 227.816,132.520 230.413,132.695 230.238 C 132.803 230.130,132.496 229.403,132.013 228.621 C 131.215 227.329,130.800 226.904,130.800 227.377 M132.800 230.946 C 132.800 231.380,136.477 236.857,136.651 236.682 C 136.736 236.597,136.007 235.311,135.031 233.825 C 133.134 230.937,132.800 230.506,132.800 230.946 M137.829 238.700 C 140.310 242.009,143.614 245.886,145.243 247.400 C 146.649 248.706,144.032 245.476,141.000 242.163 C 140.780 241.922,139.880 240.716,139.000 239.482 C 138.120 238.248,137.244 237.230,137.053 237.219 C 136.861 237.209,137.211 237.875,137.829 238.700 M253.000 241.483 C 250.917 244.434,242.598 252.857,238.909 255.752 C 237.318 256.999,235.821 258.421,235.582 258.910 L 235.146 259.800 235.873 258.976 C 236.273 258.522,237.590 257.357,238.800 256.385 C 240.010 255.414,242.233 253.538,243.739 252.216 C 247.422 248.986,255.848 239.184,254.920 239.209 C 254.744 239.213,253.880 240.237,253.000 241.483 M174.300 242.703 C 172.994 243.513,172.933 244.157,173.996 245.900 C 175.116 247.738,175.303 247.517,174.267 245.579 L 173.400 243.959 174.344 243.179 C 175.750 242.019,176.175 242.175,178.833 244.833 C 180.172 246.172,181.385 247.148,181.530 247.003 C 181.675 246.858,181.435 246.541,180.997 246.297 C 180.179 245.842,178.736 244.429,177.504 242.877 C 176.673 241.830,175.785 241.782,174.300 242.703 M216.200 243.555 C 214.553 245.637,212.659 247.045,210.457 247.823 C 207.514 248.862,206.799 249.218,208.200 248.945 C 210.823 248.435,213.659 246.793,215.804 244.542 L 217.991 242.248 219.396 242.917 C 221.095 243.728,221.283 243.470,219.620 242.610 C 217.940 241.741,217.548 241.850,216.200 243.555 M219.728 246.028 C 219.254 246.892,218.998 247.600,219.159 247.600 C 219.472 247.600,220.918 244.785,220.712 244.578 C 220.644 244.511,220.201 245.163,219.728 246.028 M182.800 247.800 C 183.350 248.114,183.980 248.372,184.200 248.372 C 184.420 248.372,184.150 248.114,183.600 247.800 C 183.050 247.486,182.420 247.228,182.200 247.228 C 181.980 247.228,182.250 247.486,182.800 247.800 M175.801 248.400 C 176.929 249.812,179.254 251.967,180.200 252.477 C 180.640 252.714,180.910 252.831,180.800 252.736 C 180.690 252.642,179.340 251.402,177.801 249.982 C 176.261 248.562,175.361 247.850,175.801 248.400 M216.800 249.800 C 215.828 250.790,215.123 251.600,215.233 251.600 C 215.343 251.600,216.228 250.790,217.200 249.800 C 218.172 248.810,218.877 248.000,218.767 248.000 C 218.657 248.000,217.772 248.810,216.800 249.800 M185.200 248.800 C 185.530 249.013,186.070 249.188,186.400 249.188 C 186.933 249.188,186.933 249.145,186.400 248.800 C 186.070 248.587,185.530 248.412,185.200 248.412 C 184.667 248.412,184.667 248.455,185.200 248.800 M148.924 251.107 C 153.333 255.156,156.800 258.044,156.800 257.668 C 156.800 257.451,156.059 256.673,155.153 255.937 C 154.247 255.202,153.300 254.420,153.049 254.200 C 147.341 249.206,144.687 247.216,148.924 251.107 M188.600 249.619 C 189.830 249.912,196.667 250.118,196.367 249.853 C 196.275 249.772,194.220 249.622,191.800 249.519 C 189.380 249.417,187.940 249.462,188.600 249.619 M201.200 249.600 L 198.200 249.856 201.000 249.881 C 202.540 249.894,204.340 249.768,205.000 249.600 C 206.493 249.220,205.653 249.220,201.200 249.600 M214.180 251.979 C 213.971 252.187,212.720 252.919,211.400 253.605 C 210.080 254.291,209.450 254.731,210.000 254.584 C 211.212 254.260,214.264 252.543,214.603 251.995 C 214.913 251.494,214.676 251.484,214.180 251.979 M181.200 253.057 C 181.200 253.327,184.835 254.898,185.024 254.709 C 185.111 254.622,184.286 254.173,183.191 253.710 C 182.096 253.247,181.200 252.953,181.200 253.057 M186.400 255.200 C 186.730 255.413,187.450 255.573,188.000 255.554 L 189.000 255.520 188.000 255.200 C 186.458 254.706,185.636 254.706,186.400 255.200 M206.800 255.200 L 205.800 255.520 206.876 255.560 C 207.468 255.582,208.064 255.420,208.200 255.200 C 208.481 254.745,208.220 254.745,206.800 255.200 M190.640 256.077 C 192.660 256.435,201.742 256.435,203.755 256.077 C 204.610 255.925,201.658 255.800,197.195 255.800 C 192.732 255.800,189.782 255.925,190.640 256.077 M33.878 277.900 L 50.355 278.009 49.760 279.504 C 49.432 280.327,49.009 281.360,48.819 281.800 C 47.907 283.917,47.202 286.083,47.223 286.708 C 47.236 287.089,47.655 286.230,48.154 284.800 C 48.654 283.370,49.453 281.322,49.931 280.249 C 50.409 279.176,50.800 278.141,50.800 277.949 C 50.800 277.754,43.418 277.642,34.100 277.695 L 17.400 277.791 33.878 277.900 M270.400 286.013 C 269.742 286.233,270.115 286.270,271.490 286.123 L 273.580 285.900 273.700 292.650 L 273.821 299.400 273.910 292.500 L 274.000 285.600 272.700 285.640 C 271.985 285.662,270.950 285.830,270.400 286.013 M46.676 287.877 C 46.403 288.319,45.190 294.229,45.238 294.883 C 45.259 295.167,45.693 293.690,46.202 291.600 C 47.058 288.087,47.191 287.044,46.676 287.877 M264.200 288.275 C 260.680 290.162,256.017 294.855,254.258 298.280 C 253.062 300.607,253.574 300.225,255.095 297.655 C 256.971 294.484,260.349 291.105,263.621 289.126 C 266.119 287.615,266.515 287.034,264.200 288.275 M44.668 296.881 C 44.116 299.102,42.902 324.031,43.369 323.565 C 43.492 323.441,43.779 318.764,44.007 313.170 C 44.234 307.577,44.605 301.494,44.831 299.654 C 45.227 296.431,45.141 294.976,44.668 296.881 M251.869 304.756 C 251.721 305.495,251.620 306.483,251.644 306.950 C 251.668 307.418,251.847 306.990,252.042 306.000 C 252.237 305.010,252.338 304.023,252.267 303.806 C 252.196 303.590,252.017 304.017,251.869 304.756 M251.200 311.500 C 251.199 311.665,249.444 311.827,247.300 311.860 C 245.155 311.893,242.950 312.119,242.400 312.362 C 241.503 312.758,241.544 312.776,242.800 312.536 C 243.570 312.388,245.806 312.251,247.768 312.230 C 250.223 312.204,251.388 312.037,251.501 311.696 C 251.592 311.423,251.562 311.200,251.433 311.200 C 251.305 311.200,251.200 311.335,251.200 311.500 M236.800 314.200 C 236.250 314.514,235.980 314.772,236.200 314.772 C 236.420 314.772,237.050 314.514,237.600 314.200 C 238.150 313.886,238.420 313.628,238.200 313.628 C 237.980 313.628,237.350 313.886,236.800 314.200 M229.330 319.700 C 227.788 321.295,226.307 323.050,226.041 323.600 C 225.645 324.415,225.722 324.378,226.453 323.400 C 226.946 322.740,228.486 321.045,229.875 319.633 C 231.264 318.222,232.340 317.007,232.267 316.934 C 232.194 316.861,230.872 318.106,229.330 319.700 M224.400 326.033 C 224.400 326.125,224.024 327.190,223.565 328.400 C 223.105 329.610,222.874 330.457,223.050 330.282 C 223.524 329.811,224.812 326.278,224.590 326.057 C 224.486 325.952,224.400 325.942,224.400 326.033 M222.209 332.500 C 222.052 332.995,221.872 338.350,221.808 344.400 L 221.691 355.400 221.984 344.600 C 222.146 338.660,222.415 333.305,222.582 332.700 C 222.946 331.386,222.617 331.209,222.209 332.500 M266.600 354.800 L 259.400 355.028 266.476 355.114 C 270.858 355.167,273.647 355.048,273.800 354.800 C 273.936 354.580,273.992 354.439,273.924 354.486 C 273.856 354.533,270.560 354.675,266.600 354.800 M222.900 355.476 C 223.285 355.576,223.915 355.576,224.300 355.476 C 224.685 355.375,224.370 355.293,223.600 355.293 C 222.830 355.293,222.515 355.375,222.900 355.476 " stroke="none" fill="#c4a494" fill-rule="evenodd"></path></g></svg>